<svg xmlns="http://www.w3.org/2000/svg" width="704.123" height="473.195"><path fill="#A28342" d="M263.503 455.109c0 6.627-5.373 12-12 12H78.999c-6.627 0-12-5.373-12-12v-53.631c0-6.627 5.373-12 12-12h172.505c6.627 0 12 5.373 12 12l-.001 53.631z"/><text transform="translate(105.093 354.703)" fill="#37476A" font-family="'HiraKakuPro-W6-83pv-RKSJ-H'" font-size="12">地域の企業と連携した</text><text transform="translate(111.093 375.703)" fill="#37476A" font-family="'HiraKakuPro-W6-83pv-RKSJ-H'" font-size="12">新しい南部鉄瓶作り</text><text transform="translate(151.094 421.305)" fill="#F7F8F8" font-family="'HiraKakuPro-W6-83pv-RKSJ-H'" font-size="14">及富</text><text transform="translate(130.094 445.805)" fill="#F7F8F8" font-family="'HiraKakuPro-W6-83pv-RKSJ-H'" font-size="14">藤幸製作所</text><path fill="#A28342" d="M636.186 454.601c0 6.627-5.373 12-12 12H451.681c-6.627 0-12-5.373-12-12V400.97c0-6.627 5.373-12 12-12h172.505c6.627 0 12 5.373 12 12v53.631z"/><text transform="translate(465.776 373.931)" fill="#37476A" font-family="'HiraKakuPro-W6-83pv-RKSJ-H'" font-size="12">コーディネート、知財相談</text><text transform="translate(467.776 420.797)" fill="#F7F8F8" font-family="'HiraKakuPro-W6-83pv-RKSJ-H'" font-size="14">岩手産業振興センター</text><text transform="translate(488.776 445.297)" fill="#F7F8F8" font-family="'HiraKakuPro-W6-83pv-RKSJ-H'" font-size="14">岩手県南振興局</text><path fill="#A28342" d="M200.367 243.398c0 6.627-5.373 12-12 12H15.862c-6.627 0-12-5.373-12-12v-53.631c0-6.627 5.373-12 12-12h172.505c6.627 0 12 5.373 12 12v53.631z"/><text transform="translate(23.956 162.728)" fill="#37476A" font-family="'HiraKakuPro-W6-83pv-RKSJ-H'" font-size="12">板金、焼入れや表面処理など</text><text transform="translate(66.957 209.595)" fill="#F7F8F8" font-family="'HiraKakuPro-W6-83pv-RKSJ-H'" font-size="14">北日本通信</text><text transform="translate(66.957 234.095)" fill="#F7F8F8" font-family="'HiraKakuPro-W6-83pv-RKSJ-H'" font-size="14">伊藤熱処理</text><path fill="#A28342" d="M450.291 94.629c0 6.627-5.372 12-12 12H265.786c-6.627 0-12-5.373-12-12v-53.63c0-6.627 5.373-12 12-12h172.506c6.627 0 12 5.373 12 12l-.001 53.63z"/><text transform="translate(266.14 13.96)" fill="#37476A" font-family="'HiraKakuPro-W6-83pv-RKSJ-H'" font-size="12">3</text><text transform="translate(274.685 13.96)" fill="#37476A" font-family="'HiraKakuPro-W6-83pv-RKSJ-H'" font-size="12">D</text><text transform="translate(284.717 14.222)" fill="#37476A" font-family="'HiraKakuPro-W6-83pv-RKSJ-H'" font-size="12">スキャン、</text><text transform="translate(344.717 13.96)" fill="#37476A" font-family="'HiraKakuPro-W6-83pv-RKSJ-H'" font-size="12">3</text><text transform="translate(353.62 14.222)" fill="#37476A" font-family="'HiraKakuPro-W6-83pv-RKSJ-H'" font-size="12">次元測定器など</text><text transform="translate(288.881 60.826)" fill="#F7F8F8" font-family="'HiraKakuPro-W6-83pv-RKSJ-H'" font-size="14">北上市基盤センター</text><text transform="translate(274.881 85.326)" fill="#F7F8F8" font-family="'HiraKakuPro-W6-83pv-RKSJ-H'" font-size="14">岩手県工業技術センター</text><path fill="#A28342" d="M700.865 242.89c0 6.627-5.373 12-12 12H516.36c-6.627 0-12-5.373-12-12v-53.632c0-6.627 5.373-12 12-12h172.505c6.627 0 12 5.373 12 12v53.632z"/><text transform="translate(518.456 162.22)" fill="#37476A" font-family="'HiraKakuPro-W6-83pv-RKSJ-H'" font-size="12">磁気回路の相談、磁束密度検査</text><text transform="translate(553.456 209.086)" fill="#F7F8F8" font-family="'HiraKakuPro-W6-83pv-RKSJ-H'" font-size="14">岩手大学工学部</text><text transform="translate(525.456 233.586)" fill="#F7F8F8" font-family="'HiraKakuPro-W6-83pv-RKSJ-H'" font-size="14">岩手県工業技術センター</text><circle fill="none" stroke="#667DB1" stroke-width="14" stroke-miterlimit="10" cx="351.881" cy="263.309" r="103.609"/><path fill="#576B98" d="M271.751 250.56h29.495v4.668h-29.495zm0 24.071h29.495v4.668h-29.495zm0-12.035h29.495v4.668h-29.495z"/><path d="M311.856 278.187v-5.302c1.337.532 2.763.965 4.276 1.293a21.07 21.07 0 004.41.487c2.229 0 3.795-.208 4.701-.624.904-.416 1.358-1.274 1.358-2.583 0-.86-.208-1.544-.623-2.05-.417-.504-1.101-.941-2.05-1.313-.951-.371-2.438-.839-4.455-1.403-3-.831-5.109-1.871-6.327-3.119s-1.827-2.969-1.827-5.168c0-2.642.964-4.678 2.896-6.103 1.93-1.427 4.737-2.14 8.42-2.14 1.663 0 3.244.111 4.745.333 1.499.224 2.726.514 3.675.87v5.302a21.369 21.369 0 00-7.617-1.382c-2.021 0-3.528.223-4.523.669-.995.445-1.492 1.262-1.492 2.449 0 .743.187 1.337.559 1.783.371.444.994.839 1.871 1.18.876.342 2.234.75 4.077 1.226 3.324.892 5.628 2.042 6.905 3.452 1.277 1.412 1.915 3.217 1.915 5.414 0 2.583-.979 4.61-2.939 6.081-1.959 1.472-4.856 2.205-8.687 2.205-3.833.001-6.921-.517-9.268-1.557zm26.953-.579c-1.396-1.426-2.094-3.491-2.094-6.194v-13.231h6.016v13.099c0 1.396.334 2.421 1.002 3.072.668.653 1.7.981 3.096.981 1.01 0 1.953-.2 2.83-.602.875-.4 1.64-.929 2.293-1.581v-14.971h6.017v21.116H352.4l-.223-2.004c-2.05 1.635-4.53 2.45-7.44 2.45-2.557.002-4.532-.712-5.928-2.135zm24.28-19.426h5.569l.223 2.006c.95-.713 2.078-1.299 3.388-1.76a12.139 12.139 0 014.054-.69c2.762 0 4.79.646 6.082 1.938 1.291 1.292 1.938 3.319 1.938 6.08v13.543h-6.015v-13.23c0-1.455-.298-2.472-.891-3.052-.596-.578-1.665-.867-3.207-.867-.921 0-1.845.199-2.764.6a7.562 7.562 0 00-2.361 1.582V279.3h-6.016v-21.118zm40.676-7.573h6.594l10.914 28.688h-6.236l-2.718-6.904H401.76l-2.674 6.904h-6.28l10.959-28.688zm7.663 17.152l-4.411-11.539-4.366 11.539h8.777zm14.522-8.554h6.017v20.092h-6.016l-.001-20.092zm.001-8.598h6.06v4.722h-6.06v-4.722z" fill="#37476A"/><path fill="none" stroke="#B0B8D5" stroke-width="10" stroke-miterlimit="10" d="M351.88 102.629v35.544"/><path fill="#B0B8D5" d="M336.921 133.796l14.958 25.905 14.959-25.905z"/><path fill="none" stroke="#B0B8D5" stroke-width="10" stroke-miterlimit="10" d="M197.503 214.955l35.809 11.635"/><path fill="#B0B8D5" d="M224.527 239.464l29.259-6.22-20.015-22.232z"/><path fill="none" stroke="#B0B8D5" stroke-width="10" stroke-miterlimit="10" d="M256.594 396.264l22.703-31.247"/><path fill="#B0B8D5" d="M288.826 377.351l3.125-29.749-27.328 12.164z"/><path fill="none" stroke="#B0B8D5" stroke-width="10" stroke-miterlimit="10" d="M447.214 396.332l-22.681-31.218"/><path fill="#B0B8D5" d="M439.208 359.863l-27.326-12.166 3.124 29.75z"/><path fill="none" stroke="#B0B8D5" stroke-width="10" stroke-miterlimit="10" d="M506.36 214.921l-35.595 11.565"/><path fill="#B0B8D5" d="M470.306 210.906l-20.015 22.23 29.26 6.223z"/></svg>