<svg baseProfile="tiny" xmlns="http://www.w3.org/2000/svg" width="5187" height="448" viewBox="0 0 5187 448"><path fill="#FFF" d="M258.709 311.83c-32.194 32.194-62.515 58.192-90.988 77.992-3.721 2.483-10.526 6.812-20.43 12.995-24.759 14.863-27.858 12.387-9.288-7.428 44.574-38.37 81.713-94.702 111.425-168.974h-94.709l-7.428-12.995h111.418v-85.427h-39c-6.19 11.149-12.387 21.668-18.57 31.572-6.183 11.148-13.618 22.291-22.284 33.418l-7.428 11.142c-8.666 11.143-11.764 8.666-9.288-7.435 16.094-45.805 27.235-99.646 33.425-161.545l50.135 20.416c8.658 7.435 9.287 14.24 1.859 20.443l-7.428 3.715a1015.8 1015.8 0 0 1-14.856 35.285H258.7V5.449l59.423 7.428c12.38 3.7 13.61 11.143 3.721 22.284l-11.142 7.421v72.433h44.566l29.719-38.993 38.993 37.139c6.197 7.428 4.959 12.38-3.707 14.856H310.695v85.42h61.283l31.565-42.707 39 38.979c7.428 8.666 6.183 14.24-3.722 16.724H316.269a3004.608 3004.608 0 0 0 16.709 29.712c11.149 17.339 25.998 34.033 44.574 50.134 22.284 19.809 48.273 37.146 77.992 52.002-21.046 9.897-37.14 25.382-48.281 46.421-24.759-23.521-43.329-44.566-55.702-63.13-14.855-22.291-28.473-49.52-40.853-81.706V419.57c0 7.421-3.707 12.373-11.135 14.842-9.904 3.722-19.192 5.574-27.858 5.574-8.659 0-12.995-5.574-12.995-16.716V311.845h-.014l.003-.015zM60.01 291.413c-13.625 19.802-27.235 37.14-40.853 51.995-17.34 17.332-22.906 17.94-16.717 1.854 2.477-3.707 4.337-6.806 5.567-9.281 27.228-56.947 44.56-122.56 51.995-196.838H9.869L2.441 126.14h57.562V7.301l61.283 5.581c12.38 3.693 13.61 10.513 3.707 20.424l-12.995 7.428v85.42h7.428l18.57-37.146 33.425 35.279c6.189 7.421 4.952 12.38-3.707 14.863h-55.702v76.132c30.949 7.421 50.75 19.801 59.423 37.146 9.911 22.283 4.952 37.139-14.855 44.56-14.863 3.707-23.521-2.476-25.998-18.57-2.477-16.087-4.336-25.382-5.567-27.844-2.476-7.428-6.812-14.233-12.995-20.43v189.424c0 7.421-8.05 12.988-24.15 16.702-18.57 3.707-27.845 0-27.845-11.142V291.433h-.015v-.02zM854.782 35.279c12.38 0 24.138 1.231 35.272 3.714 17.339 4.952 29.103 13.002 35.286 24.137 6.189 9.904 7.428 19.186 3.714 27.858-9.904 17.332-24.137 19.801-42.707 7.428-3.721-4.959-6.812-13.002-9.288-24.137s-8.05-19.814-16.716-26.005c-12.372-6.183-14.226-10.519-5.561-12.995zm-14.855 103.996c2.476 34.656 8.05 67.473 16.716 98.416 13.611 48.281 33.425 83.561 59.423 105.85 17.332 14.843 29.104 17.94 35.286 9.274 4.952-6.183 11.764-17.94 20.43-35.272l12.995-26.005c4.952-6.183 7.428-4.329 7.428 5.567-6.183 30.956-9.288 51.387-9.288 61.276-1.23 9.903-1.23 16.716 0 20.43 1.245 2.483 6.19 11.148 14.863 26.005 6.184 9.904 6.812 18.57 1.86 25.998-6.19 9.904-17.954 12.38-35.279 7.428-14.856-3.707-29.089-9.896-42.707-18.569-54.478-33.418-90.988-81.699-109.563-144.83-11.149-38.377-19.192-83.56-24.151-135.562H565.111l-3.714-13.002h226.549l-1.859-48.274-3.715-70.57 59.424 5.581c18.569 6.183 21.046 13.002 7.428 20.423l-11.135 5.574c-1.231 16.101-.616 45.188 1.859 87.273h81.706l29.718-42.714 46.42 38.986c8.659 8.673 7.429 14.247-3.714 16.729l-154.151-.012zM706.226 345.388c38.377-6.197 71.173-11.757 98.416-16.716 11.149-2.477 16.716-1.854 16.716 1.859 0 4.952-14.24 13.002-42.707 24.138l-40.853 16.709c-37.146 14.862-59.423 23.527-66.851 25.998-9.903 2.482-25.368 7.435-46.42 14.862l-5.566 9.288c-9.904 17.332-19.809 17.94-29.713 1.847l-33.425-53.841c39.608-4.959 71.173-9.295 94.709-13.002V233.979h-74.277l-3.714-13.002h141.121l31.565-42.707 44.574 38.993c8.659 8.658 7.428 14.232-3.722 16.716h-79.846v111.432h-.007v-.023zm675.802-196.838l42.714 35.286c8.666 7.429 7.436 12.38-3.707 14.843h-204.266l-3.721-13.003h137.415l31.565-37.126zm-248.833 226.543c29.718 1.245 58.808 1.859 87.281 1.859 12.38-25.998 23.521-59.423 33.425-100.276h-128.134l-5.574-12.987h328.679l31.579-40.854 50.134 37.146c9.904 8.659 8.666 14.226-3.707 16.702h-211.693c11.142 8.666 12.38 15.484 3.707 20.43l-14.856 5.574c-21.045 28.466-41.475 53.226-61.282 74.271 25.998 0 60.037-.615 102.137-1.859 48.281-1.245 73.663-1.86 76.139-1.86-11.135-17.332-24.137-32.187-38.993-44.566-19.808-12.388-22.276-19.179-7.428-20.431 29.705 9.911 53.226 19.809 70.558 29.712 27.234 16.102 45.182 35.895 53.854 59.416 3.714 9.897 3.714 19.814 0 29.712-6.183 16.095-14.856 22.886-25.998 20.424-12.38 0-21.045-6.806-25.998-20.424-7.428-21.046-12.995-34.04-16.709-38.985-85.42 16.087-162.79 27.83-232.117 35.271l-7.428 11.149c-8.659 13.604-17.332 12.988-25.998-1.854l-31.579-57.568.001-.002zm215.414-334.247c24.759 39.614 63.13 73.655 115.125 102.137 12.38 7.428 27.235 14.24 44.574 20.43 16.094 4.952 30.949 10.52 44.56 16.702-9.903 6.197-18.569 12.387-25.998 18.57-6.189 4.952-13.61 15.484-22.283 31.579-17.332-9.897-34.041-21.061-50.135-33.418-28.473-22.284-54.471-48.288-77.992-77.992-14.855-19.809-28.473-43.952-40.846-72.425-50.764 79.223-114.516 138.646-191.264 178.269-7.428 4.952-16.709 8.666-27.844 11.142-6.197-2.476-4.336-7.428 5.566-14.862 12.38-8.652 24.76-18.57 37.146-29.704 23.521-22.291 44.56-45.812 63.13-70.564 24.759-34.663 47.043-74.894 66.85-120.698l63.136 18.556c12.381 6.197 14.24 11.764 5.567 16.729l-9.295 5.554.003-.005zm609 356.664h51.995l33.425-44.567 44.574 40.846c8.659 8.652 7.428 14.24-3.721 16.709h-304.535l-3.707-12.987h129.979V185.822h-96.555l-3.721-13.002h100.275V7.547l61.283 7.429c9.911 3.707 10.526 10.512 1.848 20.423l-11.136 7.428v129.987h39l29.705-39 40.853 37.146c7.429 7.429 6.184 12.38-3.707 14.863h-105.851l-.004 211.687zm-248.827-142.991c-3.707 3.707-10.525 9.28-20.423 16.716-14.863 11.142-27.857 19.801-39 25.991-11.142 3.714-11.764 0-1.859-11.143 16.101-14.849 30.948-30.949 44.566-48.273 33.425-42.099 58.8-82.944 76.139-122.554h-116.991l-3.714-13.002h61.282V1.979l59.423 9.288c14.863 6.183 16.095 13.61 3.707 22.283l-14.855 5.574v63.13h14.855l18.57-27.851 38.993 37.146c7.435 7.429 6.197 12.988-3.707 16.717l-11.135 3.707c-4.959 8.651-10.526 17.332-16.724 25.998-6.183 8.658-19.808 24.766-40.839 48.287v14.843c21.045 3.714 36.518 8.05 46.42 13.002 17.332 9.911 25.998 22.898 25.998 39 0 13.604-4.952 21.661-14.842 24.13-14.863 3.714-24.151-.609-27.858-12.995-7.428-25.998-17.332-43.931-29.704-53.841V417.94c1.23 7.428-3.099 12.988-13.002 16.709-11.143 4.952-20.431 6.805-27.858 5.574-3.707-1.259-6.183-4.344-7.428-9.295V254.534h-.015v-.015zm935.644-124.539c12.38 4.952 27.851 14.232 46.421 27.857 11.142 8.652 13.618 17.947 7.428 27.845-3.7 4.959-10.519 6.189-20.416 3.714-8.659-2.477-19.192-4.336-31.579-5.567-12.38-1.245-35.887-2.476-70.557-3.721 0 12.387-1.231 26.627-3.707 42.721-4.952 42.099-14.227 74.278-27.858 96.569-12.38 19.794-32.194 40.224-59.423 61.276-22.291 16.094-48.903 30.334-79.854 42.707-9.91 3.714-11.135 1.859-3.707-5.567l22.277-14.855c18.57-12.381 35.901-28.467 52.002-48.274 12.387-14.856 22.906-32.81 31.565-53.855 12.387-28.473 18.577-68.711 18.577-120.706-38.371 0-69.942 2.477-94.709 7.429 1.244 14.862 1.859 34.041 1.859 57.562 0 21.046-.615 34.048-1.859 39-12.381 16.087-27.235 14.856-44.567-3.707-4.952-6.204-6.805-12.387-5.567-18.57 2.477-13.617 3.707-22.905 3.707-27.851v-38.993c-7.428 2.477-15.471 4.952-24.137 7.428-4.951 1.238-9.904 2.477-14.855 3.707-4.952 1.245-11.149 3.714-18.584 7.429-3.707 2.476-8.659 1.866-14.856-1.86-3.721-2.476-8.043-6.183-12.995-11.135-9.91-8.659-16.101-15.479-18.57-20.431-6.196-19.808-4.336-34.041 5.567-42.707 6.183 8.659 11.135 15.479 14.856 20.431 6.196 6.183 14.855 8.659 25.998 7.428 23.521-2.476 42.721-4.329 57.562-5.567-1.231-44.566-3.091-69.948-5.567-76.146-1.23-3.707-10.519-9.904-27.844-18.563 1.231-2.482 3.707-4.951 7.428-7.428 3.707-2.476 8.051-4.966 12.996-7.428 11.142-2.477 31.571 4.952 61.282 22.284 7.429 3.721 9.274 9.288 5.567 16.723l-7.436 14.856v51.987l94.709-7.428c-1.23-59.416-2.476-91.61-3.707-96.562-1.238-4.945-4.959-9.281-11.135-12.995-3.721-1.245-9.911-3.722-18.57-7.436 1.231-3.707 3.707-6.805 7.428-9.273 7.429-4.952 13.002-7.429 16.717-7.429 7.428 0 19.808 4.336 37.146 12.995 19.809 9.911 30.949 17.954 33.425 24.145 2.477 4.952-1.244 11.142-11.142 18.562v72.425c19.808 0 37.755-.615 53.854-1.853l14.828-11.17.002-.003zm268.137 57.325c-18.57 2.476-32.796-11.149-42.707-40.854-11.135-27.235-26.613-47.659-46.428-61.275-8.659-6.184-16.702-11.136-24.137-14.863-3.7-2.477-3.092-4.323 1.859-5.567 6.197-1.245 23.528 1.245 51.995 7.428 49.526 11.143 77.37 33.418 83.561 66.857 4.959 29.705-3.091 45.791-24.143 48.274zm-98.409 135.548c4.952 8.666 9.274 16.101 12.995 22.291 2.483 3.7 9.288 3.7 20.43 0 24.752-7.428 53.855-19.808 87.274-37.146 29.718-14.849 57.562-30.935 83.56-48.273 51.996-33.418 98.416-69.942 139.276-109.551 1.238-1.244 3.707-3.714 7.428-7.441 14.863-9.891 17.954-7.421 9.295 7.441-32.194 47.043-73.67 93.457-124.427 139.27-43.336 39.615-97.8 76.755-163.413 111.411-6.197 12.387-11.142 19.199-14.856 20.43-8.658 2.483-24.137-8.036-46.427-31.564-9.903-9.911-16.087-17.339-18.569-22.298-7.437-19.803-4.953-34.658 7.434-44.57zm742.709-230.131c-28.473 0-50.134.615-64.989 1.853-37.133 2.483-81.699 8.666-133.701 18.577-14.856 2.469-27.242 6.805-37.133 13.002-9.903 6.183-21.045 3.707-33.425-7.435-4.959-3.693-12.387-10.52-22.291-20.424-8.659-8.666-13.61-17.332-14.855-25.998-1.245-9.903 1.245-16.094 7.428-18.569 3.714 3.707 10.533 8.659 20.43 14.842 8.666 4.966 16.716 7.442 24.151 7.442 22.283-1.238 68.082-4.952 137.408-11.143l137.414-9.288 22.291-20.423c13.611 8.659 28.474 21.668 44.574 38.993 14.856 16.101 21.038 27.235 18.57 33.411-1.23 3.721-6.805 6.196-16.702 7.435-6.204 1.238-14.247 1.854-24.137 1.854-47.05 24.752-92.231 45.805-135.562 63.13-12.388 48.288-23.521 82.329-33.426 102.137-17.339 34.663-40.23 64.375-68.711 89.142-11.142 9.896-29.089 21.661-53.854 35.278-14.856 7.429-17.954 6.197-9.288-3.714 16.094-13.61 28.473-26.62 37.132-38.993 21.046-28.473 36.524-58.178 46.428-89.127 3.707-13.618 8.043-32.194 12.995-55.716 6.19-33.425 7.428-51.995 3.707-55.709-3.707-3.714-11.764-8.666-24.137-14.863 2.482-4.944 6.189-8.043 11.143-9.273 8.658-2.477 16.701-3.084 24.137-1.86 9.904 2.476 28.473 13.611 55.701 33.425 24.76-23.514 47.659-49.505 68.705-77.984h-.003zm321.32 115.125c-35.901 23.521-67.473 41.475-94.709 53.848-24.759 11.156-51.988 21.046-81.713 29.712-18.57 4.952-15.478 0 9.295-14.855 9.904-4.952 27.844-16.095 53.854-33.426 58.179-38.362 114.502-89.141 168.974-152.271 4.952-6.19 11.142-13.604 18.569-22.291 6.197-7.421 9.295-12.988 9.295-16.702 0-6.19-8.05-13.002-24.15-20.43 3.714-4.952 9.904-8.051 18.577-9.281 11.148-1.231 22.284 2.476 33.418 11.142l16.723 13.002c7.421 6.184 14.849 14.227 22.284 24.138 11.135 11.135 7.428 20.43-11.143 27.851-8.658 1.238-16.087 4.952-22.291 11.135a3097.588 3097.588 0 0 1-70.557 61.29l11.143 5.567c8.658 7.428 8.043 14.849-1.86 22.284l-5.567 1.859c0 22.284.616 61.913 1.86 118.833v35.3c1.245 12.38 1.847 21.661 1.847 27.83 0 9.911-1.23 18.584-3.707 26.005-3.707 12.387-12.995 17.947-27.844 16.709-11.143-1.238-19.809-9.897-25.998-25.991-2.482-6.204-3.091-14.24-1.847-24.137 1.23-4.952 2.482-11.765 3.707-20.431 2.476-13.61 3.714-41.475 3.714-83.56-.014-13.604-.651-34.649-1.874-63.13zm673.69 26.123v38.992h-102.138V233.97h102.138zm0 107.698v22.298c0 8.658-1.246 14.226-3.722 16.702-3.707 2.482-10.526 3.091-20.416 1.859-14.856-1.238-27.858-1.859-38.993-1.859-4.952 3.706-4.952 6.189 0 7.435l33.425 12.988c6.196 2.482 9.288 6.189 9.288 11.148 0 9.904.616 16.087 1.859 18.57 2.483 3.707 6.799 4.952 12.996 3.707 13.61-2.477 25.998-8.05 37.139-16.716 8.652-6.184 13.611-12.988 14.85-20.431 1.244-3.707 1.859-12.38 1.859-25.998V252.533l3.721-1.86c9.904-6.183 11.135-12.987 3.701-20.423l-46.42-35.278-16.717 25.998h-90.994l-52.002-22.291v228.41c0 7.428 2.482 11.135 7.435 11.135 3.714 0 12.388-1.238 25.998-3.707 9.903-2.477 14.856-6.812 14.856-12.988v-79.853l102.137-.008zM4386.605 85.413c8.659-6.183 9.904-11.135 3.707-14.863l-42.707-25.997c-4.952 33.432-14.863 70.563-29.718 111.418-4.944 17.339-.616 19.191 13.002 5.566 19.808-24.752 37.146-49.505 51.987-74.271l3.729-1.853zm-178.267-1.853c3.707 11.135 5.566 28.479 5.566 52.002 0 13.618 1.23 22.898 3.707 27.851 9.904 8.659 21.045 6.812 33.425-5.566 6.19-8.659 8.659-17.954 7.435-27.858-2.482-21.046-11.142-37.755-25.998-50.134l-20.43-16.709c-11.135 1.23-12.38 8.036-3.707 20.416l.002-.002zm61.268 343.541c0 6.183 3.714 9.273 11.142 9.273 8.674 0 16.717-1.23 24.138-3.692 6.196-2.483 9.288-6.812 9.288-13.002V256.253c8.659 11.149 15.479 26.627 20.43 46.436 3.707 18.57 13.002 25.382 27.858 20.43 18.569-9.903 21.661-26.005 9.28-48.273-9.91-14.856-29.088-24.76-57.568-29.719V204.28h66.863c14.842 0 16.703-5.574 5.567-16.723h243.259c8.659-2.477 9.904-7.429 3.707-14.843l-37.132-37.152-29.718 39h-48.273v-40.867h92.834c8.666-2.469 9.91-7.421 3.721-14.842l-37.139-31.565-25.998 33.411h-33.426v-40.86h103.99c8.66-2.476 9.897-7.428 3.707-14.849l-35.278-35.279-31.565 37.14h-40.853V38.999l9.288-3.714c14.842-11.142 13.611-18.57-3.721-22.284l-57.562-5.581v59.424h-72.418l5.566 12.994h66.851v40.854h-70.571l5.567 12.988h64.99v40.859h-89.142l-22.283-20.43-25.992 37.153h-14.862V38.991l7.435-5.574c7.436-9.918 6.812-16.716-1.859-20.423l-50.134-5.581v183.851h-76.125l5.567 12.994h65.011c-11.149 44.561-22.905 79.847-35.293 105.837-9.89 19.813-21.038 38.993-33.411 57.568-4.952 11.143-.623 12.381 12.995 3.7 4.952-3.7 9.288-7.421 13.002-11.135 12.373-12.387 28.466-31.579 48.267-57.562v124.435zm282.267-141.129v42.7h-102.138v-42.7h102.138zm422.891-239.426c9.904-4.959 11.135-9.903 3.707-14.855l-44.574-29.718c-9.904 42.098-16.702 68.096-20.43 77.991-4.953-3.714-12.381-7.428-22.285-11.142-16.094-3.707-19.185-.623-9.295 9.281 7.436 7.421 12.388 19.178 14.863 35.278 2.477 14.863 8.043 22.899 16.709 24.138 6.189 3.714 12.387.623 18.577-9.274 8.659-9.904 5.567-23.521-9.295-40.853l42.714-37.146 9.309-3.7zm150.402 103.983c7.429 7.428 12.388 15.478 14.856 24.137a4124.526 4124.526 0 0 1-38.993 3.714 258.233 258.233 0 0 0 24.137-27.851zm-24.144 120.707c-7.435 13.618-16.702 28.466-27.858 44.567-7.428-16.102-12.994-30.942-16.701-44.567h44.559zm-87.274 0c7.436 33.418 17.332 61.899 29.719 85.42-16.095 21.038-32.188 37.14-48.281 48.268-14.855 11.155-29.718 20.43-44.566 27.851-16.108 8.659-19.199 12.995-9.295 12.995l18.584-5.56c43.328-12.388 78.607-29.72 105.842-52.003 16.095 17.34 30.328 29.097 42.722 35.301 29.712 16.087 52.61 19.794 68.696 11.135 11.143-6.197 13.002-13.611 5.567-22.291l-7.435-9.288c-4.945-6.197-6.806-12.38-5.561-18.57l9.288-59.423c-1.237-3.707-3.714-4.329-7.429-1.859-9.91 18.569-20.43 36.53-31.578 53.861-4.953 3.707-11.765 3.091-20.431-1.859-6.183-3.707-13.61-10.526-22.276-20.431 8.658-7.435 17.953-17.332 27.844-29.719l11.143-3.707c12.379-4.952 13.61-11.764 3.707-20.43l-35.279-29.72h70.557c7.436-2.476 8.064-7.428 1.86-14.849l-31.565-33.425-24.144 35.278h-66.856a616.428 616.428 0 0 1-7.429-66.843l16.716 29.704c4.952 8.659 10.525 8.659 16.702 0l3.722-5.567 1.853-1.859c2.476 4.945 4.336 12.38 5.554 22.291 1.252 11.135 6.812 16.716 16.723 16.716 12.38 0 18.57-6.805 18.57-20.43 0-9.897-8.66-18.57-25.998-25.991 14.855-6.197 29.088-12.387 42.707-18.584v3.721c1.237 7.428 2.482 12.995 3.721 16.702 2.477 4.959 5.566 8.05 9.273 9.288 13.619 4.959 22.291 0 25.998-14.856 3.722-14.862-3.09-29.089-20.43-42.707-7.428-6.196-17.934-11.142-31.564-14.862l14.855-18.57 11.135-5.567c8.673-4.966 9.911-10.532 3.721-16.716l-37.131-27.857c-14.856 39.607-29.719 74.277-44.582 103.997a304.132 304.132 0 0 1-33.41 1.847c-1.252-56.94-1.86-95.311-1.86-115.118 8.659 9.897 14.226 18.563 16.702 26.005 1.238 4.938 3.714 13.604 7.436 25.991 7.428 13.604 17.332 14.849 29.717 3.7 11.143-12.38 8.66-27.229-7.435-44.554 11.142-7.435 24.138-17.339 39-29.719l5.554-1.859c11.148-4.959 12.379-10.52 3.713-16.717l-40.846-25.998c-6.189 23.515-12.995 45.799-20.43 66.851-12.388-4.952-23.521-8.05-33.426-9.288V37.251l9.289-5.566c8.658-8.659 8.049-14.856-1.86-18.57l-53.854-7.435c1.244 44.573 2.476 79.229 3.713 103.982l-38.992-29.704a1392.65 1392.65 0 0 1-27.858 63.138 2213.025 2213.025 0 0 1-25.998 53.848 539.523 539.523 0 0 1-44.567 1.86l18.57 35.271c6.204 12.387 13.002 13.611 20.43 3.721l5.567-7.428c18.577-6.189 35.901-12.995 52.002-20.43l1.86 9.288c3.699 16.094 11.135 22.284 22.27 18.569 17.339-9.903 20.438-25.382 9.295-46.421-7.436-12.387-19.809-22.905-37.132-31.571 9.903-11.136 19.794-22.291 29.704-33.418 6.197-1.238 11.148-3.092 14.863-5.574 2.476 47.043 6.183 92.841 11.135 137.408H4894.86c-9.897-13.611-27.235-23.521-51.987-29.704v-87.274h50.133c7.422-2.476 8.043-7.435 1.854-14.863L4867.008 91.1l-20.43 37.146h-3.707V40.964l12.995-7.435c11.142-11.135 9.903-18.563-3.707-22.284l-57.569-5.566v122.56h-63.129l11.142 13.002h50.134c-4.959 45.805-12.38 84.798-22.284 116.979-9.911 30.948-21.046 58.813-33.433 83.56-6.183 17.339-4.336 21.675 5.567 13.002 6.196-4.952 23.521-24.752 51.987-59.416V429.06c0 8.659 4.344 12.38 13.002 11.142 12.388-1.252 22.291-4.344 29.705-9.295 3.722-2.476 5.574-7.414 5.574-14.842V241.501c7.429 11.149 11.75 18.57 12.996 22.284 2.476 17.339 4.336 27.858 5.56 31.586 7.435 13.611 17.954 15.472 31.586 5.561 7.421-4.952 9.28-14.85 5.567-29.712h14.842c1.244 28.466-1.231 55.079-7.429 79.853-6.19 29.712-19.199 57.556-38.993 83.561-7.436 13.61-2.482 14.232 14.842 1.853 11.156-8.659 17.954-14.24 20.43-16.709 21.047-17.339 35.901-39.615 44.567-66.85 2.483-9.904 4.952-19.814 7.435-29.718 6.184 6.203 11.765 21.668 16.709 46.434 6.205 14.849 16.102 17.947 29.719 9.281 6.183-4.938 9.896-10.526 11.135-16.717 2.482-14.849-3.715-27.844-18.578-38.985-9.903-6.19-21.66-10.533-35.278-12.995 1.245-16.102 2.476-29.089 3.722-38.993h52.058l.003.001zm-63.123-105.844c2.483 3.707 4.945 8.05 7.429 13.002 1.245 3.707 1.86 8.043 1.86 12.995-14.856 1.237-26.627 2.476-35.287 3.707l25.998-29.704z"/></svg>