<svg xmlns="http://www.w3.org/2000/svg" width="2497" height="448" viewBox="0 0 2497 448"><path fill="#576b98" d="M0 0h459.777v72.757H0V0zm0 375.243h459.777v72.761H0v-72.761zm0-187.619h459.777v72.757H0v-72.757z"/><path fill="#37476a" d="M625.161 430.639v-82.636c20.834 8.334 43.057 15.051 66.668 20.135 23.611 5.101 46.529 7.639 68.751 7.639 34.723 0 59.14-3.228 73.265-9.723 14.116-6.473 21.181-19.9 21.181-40.278 0-13.418-3.245-24.066-9.723-31.945-6.49-7.866-17.134-14.691-31.945-20.486-14.819-5.779-37.968-13.075-69.446-21.875-46.768-12.955-79.635-29.167-98.613-48.612-18.99-19.445-28.473-46.289-28.473-80.557 0-41.2 15.038-72.918 45.14-95.141 30.089-22.223 73.84-33.334 131.253-33.334 25.922 0 50.575 1.736 73.96 5.208 23.372 3.472 42.469 7.986 57.293 13.542v82.641C886.504 80.873 846.92 73.689 805.72 73.689c-31.49 0-54.982 3.472-70.487 10.417-15.518 6.944-23.264 19.684-23.264 38.195 0 11.578 2.885 20.834 8.681 27.778 5.783 6.944 15.505 13.087 29.167 18.403 13.65 5.328 34.83 11.698 63.543 19.098 51.845 13.889 87.729 31.838 107.641 53.82 19.9 21.995 29.862 50.121 29.862 84.377 0 40.278-15.278 71.88-45.834 94.794-30.556 22.921-75.696 34.376-135.419 34.376s-107.881-8.094-144.447-24.306zm420.143-9.024c-21.768-22.223-32.64-54.395-32.64-96.534v-206.25h93.752v204.171c0 21.768 5.208 37.74 15.625 47.918 10.417 10.189 26.497 15.278 48.269 15.278 15.729 0 30.436-3.125 44.098-9.375 13.645-6.254 25.571-14.464 35.756-24.653V118.832h93.76v329.173h-86.807l-3.472-31.255c-31.949 25.472-70.612 38.195-115.979 38.195-39.824 0-70.607-11.107-92.363-33.33zm378.472-302.784h86.807l3.472 31.251c14.811-11.111 32.4-20.247 52.779-27.431 20.371-7.172 41.428-10.764 63.196-10.764 43.057 0 74.659 10.07 94.797 30.209 20.135 20.139 30.209 51.737 30.209 94.794v211.115h-93.752V241.747c0-22.677-4.634-38.538-13.889-47.566-9.268-9.028-25.931-13.542-50.001-13.542-14.356 0-28.713 3.125-43.057 9.375-14.356 6.25-26.629 14.476-36.806 24.653v233.338h-93.752V118.832zM2057.804.773h102.78l170.138 447.231h-97.224l-42.362-107.641h-164.583l-41.668 107.641h-97.919L2057.803.773zm119.447 267.366L2108.5 88.274l-68.057 179.865h136.808zm226.389-133.34h93.756V448h-93.752l-.004-313.201zm.004-134.026h94.446v73.612h-94.446V.773z"/></svg>