<svg xmlns="http://www.w3.org/2000/svg" width="681.074" height="158.277"><path d="M204.987 93.551c-3.618 3.618-7.026 6.54-10.227 8.766-.417.278-1.183.766-2.295 1.461-2.783 1.67-3.131 1.392-1.044-.835 5.009-4.312 9.183-10.644 12.522-18.991H193.3l-.834-1.461h12.522V72.89h-4.383a79.943 79.943 0 01-2.087 3.548 29.434 29.434 0 01-2.504 3.757l-.835 1.252c-.974 1.253-1.322.975-1.043-.835 1.809-5.147 3.061-11.199 3.756-18.156l5.635 2.295c.974.836 1.043 1.601.208 2.297l-.835.417a114.42 114.42 0 01-1.669 3.966h3.757V59.116l6.678.835c1.391.416 1.53 1.252.417 2.504l-1.252.834v8.141h5.009l3.339-4.383 4.383 4.174c.696.834.557 1.391-.417 1.669h-12.313v9.601h6.887l3.548-4.8 4.383 4.382c.835.975.696 1.601-.417 1.879h-13.774a322.127 322.127 0 001.878 3.339c1.252 1.948 2.922 3.826 5.009 5.635 2.504 2.227 5.426 4.175 8.766 5.844-2.365 1.113-4.174 2.853-5.426 5.218-2.783-2.644-4.87-5.009-6.261-7.096-1.67-2.505-3.2-5.565-4.592-9.183v17.948c0 .834-.417 1.391-1.252 1.669-1.113.418-2.157.626-3.131.626-.974 0-1.46-.626-1.46-1.878V93.551zm-22.331-2.295c-1.531 2.226-3.061 4.174-4.591 5.844-1.948 1.947-2.574 2.017-1.878.208.278-.417.487-.765.626-1.043 3.061-6.4 5.009-13.774 5.844-22.122h-5.635l-.835-1.461h6.47V59.324l6.887.627c1.391.416 1.53 1.182.417 2.295l-1.46.835v9.601h.834l2.087-4.174 3.757 3.965c.696.834.557 1.391-.417 1.67H188.5V82.7c3.478.834 5.704 2.226 6.678 4.174 1.113 2.504.557 4.174-1.669 5.009-1.67.417-2.644-.278-2.922-2.087s-.487-2.853-.626-3.131c-.278-.835-.765-1.6-1.46-2.296v21.288c0 .834-.905 1.461-2.713 1.878-2.087.417-3.13 0-3.13-1.252V91.256m81.461-28.787c1.392 0 2.713.139 3.965.418 1.948.557 3.27 1.461 3.965 2.713.696 1.113.835 2.156.417 3.131-1.113 1.947-2.713 2.226-4.8.834-.417-.557-.766-1.461-1.043-2.713-.278-1.252-.905-2.227-1.878-2.922-1.391-.696-1.6-1.183-.626-1.461zm-1.67 11.687c.278 3.896.904 7.583 1.878 11.061 1.53 5.427 3.756 9.392 6.678 11.896 1.948 1.669 3.27 2.018 3.965 1.043.557-.695 1.322-2.018 2.296-3.965l1.461-2.922c.557-.695.834-.487.834.626-.695 3.479-1.043 5.774-1.043 6.887-.139 1.113-.139 1.879 0 2.296.139.278.696 1.252 1.67 2.922.695 1.113.765 2.087.208 2.922-.696 1.113-2.018 1.392-3.965.835a16.23 16.23 0 01-4.8-2.087c-6.122-3.757-10.227-9.183-12.313-16.278-1.252-4.313-2.157-9.392-2.713-15.235h-25.044l-.417-1.461h25.461l-.208-5.426-.417-7.931 6.678.626c2.087.695 2.366 1.461.835 2.295l-1.252.627c-.139 1.809-.07 5.078.208 9.809h9.183l3.339-4.801 5.218 4.383c.974.975.834 1.601-.417 1.879h-17.323m-15.026 23.164c4.313-.695 8-1.321 11.061-1.878 1.252-.278 1.878-.209 1.878.209 0 .557-1.6 1.461-4.8 2.713l-4.591 1.878c-4.174 1.67-6.678 2.644-7.513 2.922-1.113.278-2.852.835-5.217 1.67l-.626 1.044c-1.113 1.947-2.226 2.017-3.339.208l-3.757-6.052c4.452-.557 8-1.044 10.644-1.461V84.8h-8.348l-.417-1.461h15.861l3.548-4.8 5.009 4.383c.974.974.834 1.6-.417 1.878h-8.974v12.521m66.517-22.122l4.8 3.966c.974.835.835 1.392-.417 1.669h-22.957l-.417-1.461h15.444l3.547-4.174zm-27.965 25.462c3.339.139 6.609.209 9.809.209 1.392-2.922 2.644-6.679 3.757-11.271h-14.4l-.626-1.461h36.94l3.548-4.591 5.635 4.174c1.113.974.974 1.6-.417 1.878h-23.792c1.252.975 1.392 1.739.417 2.296l-1.669.626c-2.365 3.2-4.661 5.982-6.887 8.349 2.922 0 6.748-.07 11.479-.209 5.426-.14 8.278-.209 8.557-.209-1.252-1.948-2.713-3.617-4.383-5.009-2.226-1.392-2.504-2.156-.834-2.296 3.339 1.113 5.982 2.227 7.931 3.34 3.061 1.809 5.078 4.034 6.052 6.678a4.615 4.615 0 010 3.34c-.696 1.809-1.67 2.573-2.922 2.295-1.391 0-2.365-.765-2.922-2.295-.835-2.365-1.461-3.826-1.878-4.383-9.6 1.809-18.296 3.13-26.087 3.965l-.835 1.253c-.974 1.53-1.948 1.46-2.921-.209l-3.552-6.47m24.209-37.566c2.783 4.452 7.096 8.278 12.939 11.479 1.391.835 3.061 1.601 5.009 2.296a41.997 41.997 0 015.009 1.878 26.705 26.705 0 00-2.922 2.087c-.696.557-1.53 1.739-2.504 3.549a49.632 49.632 0 01-5.635-3.757c-3.2-2.505-6.122-5.427-8.766-8.766-1.669-2.226-3.2-4.939-4.591-8.14-5.705 8.904-12.87 15.583-21.496 20.035-.835.557-1.878.975-3.13 1.253-.696-.278-.487-.835.626-1.67A43.885 43.885 0 00288.899 80a62.912 62.912 0 007.096-7.932c2.783-3.895 5.287-8.417 7.513-13.565l7.096 2.086c1.391.696 1.6 1.322.626 1.879l-1.044.627m61.371 40.085h5.844l3.757-5.009 5.009 4.591c.974.974.835 1.601-.418 1.879h-34.227l-.417-1.461h14.608V79.388h-10.852l-.418-1.461h11.27V59.353l6.888.835c1.113.417 1.183 1.182.208 2.295l-1.252.835v14.609h4.383l3.339-4.383 4.592 4.174c.835.835.695 1.392-.417 1.67h-11.896v23.792zm-27.966-16.071c-.417.417-1.183 1.043-2.295 1.878-1.67 1.253-3.131 2.227-4.383 2.922-1.252.418-1.322 0-.209-1.252a46.338 46.338 0 005.009-5.426c3.757-4.731 6.608-9.322 8.557-13.774h-13.148l-.417-1.461h6.887v-11.27l6.679 1.043c1.67.695 1.809 1.53.417 2.504l-1.669.627v7.096h1.669l2.087-3.131 4.383 4.174c.835.835.696 1.461-.417 1.879l-1.252.417a34.422 34.422 0 01-1.879 2.922c-.695.974-2.226 2.783-4.591 5.427v1.669c2.365.418 4.104.904 5.217 1.461 1.948 1.113 2.922 2.574 2.922 4.383 0 1.53-.557 2.435-1.669 2.713-1.67.418-2.714-.069-3.131-1.461-.835-2.922-1.948-4.938-3.339-6.052v21.078c.139.835-.349 1.461-1.461 1.879-1.253.557-2.296.765-3.131.626-.417-.14-.695-.487-.835-1.044V87.109m89.435-13.997c1.391.557 3.13 1.601 5.217 3.131 1.253.974 1.531 2.018.835 3.13-.417.557-1.183.696-2.295.418-.975-.278-2.157-.487-3.549-.626-1.391-.14-4.034-.278-7.931-.418 0 1.392-.139 2.992-.417 4.801-.557 4.73-1.6 8.348-3.131 10.853-1.391 2.226-3.617 4.521-6.678 6.887-2.505 1.809-5.496 3.409-8.975 4.8-1.113.418-1.252.209-.417-.626l2.504-1.67c2.087-1.391 4.035-3.199 5.844-5.426 1.392-1.67 2.574-3.688 3.548-6.053 1.392-3.199 2.087-7.722 2.087-13.565-4.312 0-7.86.278-10.644.835.14 1.67.209 3.826.209 6.47 0 2.365-.069 3.826-.209 4.383-1.392 1.809-3.061 1.67-5.009-.417-.557-.696-.765-1.392-.626-2.087.278-1.531.417-2.574.417-3.131v-4.383c-.834.278-1.738.557-2.713.835l-1.669.417c-.557.14-1.253.418-2.088.835-.417.278-.974.209-1.669-.209-.418-.278-.904-.695-1.461-1.252-1.113-.974-1.809-1.739-2.087-2.296-.696-2.226-.487-3.826.626-4.8.695.974 1.252 1.739 1.669 2.296.696.695 1.67.974 2.922.835 2.644-.278 4.801-.487 6.47-.626-.139-5.009-.348-7.861-.626-8.558-.139-.417-1.183-1.113-3.13-2.086.139-.279.417-.557.835-.836.417-.277.904-.557 1.46-.834 1.253-.278 3.549.557 6.888 2.504.835.418 1.043 1.044.626 1.879l-.835 1.67v5.843l10.644-.835c-.139-6.678-.278-10.295-.417-10.852-.14-.557-.557-1.044-1.252-1.461-.418-.14-1.113-.418-2.087-.836.139-.417.417-.765.834-1.043.835-.557 1.461-.835 1.879-.835.835 0 2.226.487 4.174 1.461 2.227 1.113 3.479 2.018 3.757 2.714.278.557-.14 1.252-1.253 2.086v8.14c2.227 0 4.244-.069 6.053-.208l1.67-1.254zm23.847 6.443c-2.087.278-3.687-1.253-4.8-4.592-1.252-3.061-2.991-5.356-5.218-6.887-.974-.695-1.878-1.252-2.713-1.67-.417-.278-.348-.486.209-.626.695-.14 2.644.14 5.844.835 5.565 1.252 8.695 3.756 9.392 7.513.556 3.34-.348 5.148-2.714 5.427zm-11.061 15.234c.557.975 1.043 1.81 1.461 2.505.278.417 1.043.417 2.296 0 2.782-.835 6.052-2.227 9.809-4.174a87.35 87.35 0 009.392-5.427c5.844-3.756 11.061-7.86 15.652-12.312l.835-.836c1.67-1.112 2.018-.834 1.044.836-3.618 5.286-8.279 10.504-13.983 15.652-4.87 4.452-10.991 8.626-18.365 12.521-.696 1.392-1.253 2.157-1.67 2.296-.974.278-2.713-.904-5.218-3.548-1.113-1.113-1.809-1.948-2.087-2.505-.836-2.225-.558-3.895.834-5.008m77.971-25.864c-3.2 0-5.635.069-7.305.208-4.174.279-9.183.975-15.026 2.088-1.67.277-3.062.765-4.174 1.461-1.113.695-2.365.417-3.757-.836-.557-.416-1.392-1.182-2.505-2.295-.974-.975-1.53-1.947-1.669-2.922-.14-1.113.139-1.809.834-2.087.418.417 1.184.974 2.296 1.669.975.557 1.879.836 2.714.836 2.504-.14 7.652-.557 15.443-1.253l15.443-1.044 2.505-2.295c1.53.974 3.2 2.435 5.009 4.383 1.67 1.809 2.365 3.061 2.087 3.756-.139.418-.765.696-1.878.836-.696.139-1.601.208-2.713.208-5.287 2.782-10.366 5.147-15.235 7.096-1.392 5.427-2.644 9.253-3.757 11.479-1.948 3.896-4.521 7.235-7.722 10.018-1.253 1.113-3.27 2.435-6.053 3.966-1.669.834-2.018.695-1.043-.418 1.809-1.53 3.2-2.991 4.174-4.383 2.365-3.2 4.104-6.539 5.218-10.018.417-1.53.904-3.617 1.461-6.261.695-3.757.834-5.844.417-6.261-.417-.418-1.322-.975-2.713-1.67.278-.557.695-.904 1.252-1.043.974-.279 1.878-.348 2.713-.209 1.113.278 3.2 1.53 6.261 3.757a66.985 66.985 0 007.723-8.766zm29.037 12.939c-4.035 2.644-7.583 4.661-10.644 6.052-2.783 1.253-5.844 2.365-9.184 3.34-2.087.557-1.739 0 1.044-1.67 1.113-.557 3.131-1.809 6.053-3.757 6.539-4.312 12.869-10.018 18.991-17.113.557-.696 1.252-1.53 2.087-2.505.695-.834 1.044-1.461 1.044-1.878 0-.695-.904-1.461-2.714-2.296.418-.557 1.113-.904 2.088-1.043 1.252-.139 2.504.278 3.756 1.252l1.879 1.461c.834.695 1.669 1.6 2.504 2.713 1.252 1.252.835 2.296-1.252 3.131a4.322 4.322 0 00-2.505 1.252 350.82 350.82 0 01-7.931 6.888l1.253.626c.974.835.904 1.669-.209 2.504l-.626.209c0 2.504.069 6.957.209 13.356v3.966c.139 1.391.208 2.435.208 3.13 0 1.113-.139 2.087-.417 2.922-.418 1.392-1.461 2.018-3.131 1.879-1.252-.14-2.226-1.113-2.922-2.922-.278-.696-.348-1.601-.208-2.713.139-.557.278-1.322.417-2.296.278-1.53.418-4.661.418-9.392.001-1.53-.07-3.896-.208-7.096zm64.711 2.936v4.383h-11.479V84.8h11.479zm0 12.104v2.505c0 .974-.14 1.6-.418 1.878-.417.278-1.183.348-2.295.209a53.256 53.256 0 00-4.383-.209c-.557.417-.557.695 0 .835l3.756 1.461c.696.278 1.044.695 1.044 1.252 0 1.113.069 1.809.209 2.087.278.418.765.557 1.461.418a9.468 9.468 0 004.174-1.879c.974-.695 1.53-1.461 1.669-2.296.14-.417.209-1.391.209-2.922V86.887l.418-.209c1.113-.695 1.252-1.461.417-2.295l-5.218-3.966-1.878 2.922H606.47l-5.844-2.505v25.671c0 .835.278 1.252.835 1.252.418 0 1.392-.14 2.922-.417 1.113-.278 1.67-.766 1.67-1.461v-8.975h11.479m-18.574-28.8c.974-.695 1.113-1.252.417-1.67l-4.8-2.922c-.557 3.758-1.67 7.932-3.34 12.522-.556 1.948-.069 2.156 1.461.626 2.227-2.782 4.175-5.564 5.844-8.348l.418-.208m-20.036-.209c.417 1.252.626 3.201.626 5.844 0 1.531.139 2.574.417 3.131 1.113.974 2.365.766 3.757-.626.695-.974.974-2.018.835-3.131-.278-2.365-1.252-4.243-2.922-5.635l-2.296-1.878c-1.252.138-1.391.904-.417 2.295m6.887 38.61c0 .695.418 1.043 1.252 1.043.975 0 1.879-.139 2.713-.417.696-.278 1.044-.766 1.044-1.461V87.304c.974 1.253 1.739 2.992 2.296 5.218.417 2.087 1.461 2.853 3.131 2.296 2.087-1.113 2.435-2.922 1.043-5.426-1.113-1.67-3.27-2.783-6.47-3.34v-4.591h7.514c1.669 0 1.878-.627.626-1.879h27.34c.974-.278 1.112-.835.417-1.669l-4.174-4.175-3.339 4.383h-5.427v-4.592h10.435c.975-.277 1.113-.834.418-1.669l-4.174-3.548-2.922 3.756h-3.757v-4.591h11.688c.974-.278 1.112-.835.417-1.669l-3.965-3.966-3.548 4.174h-4.592v-3.13l1.044-.418c1.669-1.252 1.53-2.087-.418-2.504l-6.47-.626v6.678h-8.14l.627 1.461h7.513v4.591H600l.626 1.461h7.305v4.592h-10.018l-2.504-2.296L592.488 80h-1.67V62.887l.835-.627c.835-1.113.766-1.878-.209-2.295l-5.635-.626V80h-8.557l.626 1.461h7.305c-1.252 5.009-2.574 8.974-3.966 11.896a59.935 59.935 0 01-3.756 6.47c-.557 1.252-.07 1.392 1.461.417a13.524 13.524 0 001.461-1.252c1.391-1.392 3.199-3.548 5.426-6.47v13.983m31.723-15.861v4.8h-11.479v-4.8h11.479m39.667-26.91c1.113-.557 1.252-1.112.417-1.669l-5.009-3.339c-1.113 4.731-1.878 7.653-2.296 8.766-.557-.418-1.391-.836-2.504-1.253-1.809-.417-2.156-.069-1.044 1.044.835.834 1.392 2.156 1.67 3.965.278 1.67.904 2.574 1.878 2.713.696.418 1.392.07 2.088-1.043.974-1.113.626-2.644-1.044-4.592l4.8-4.174 1.044-.418zm16.904 11.688c.835.835 1.392 1.739 1.67 2.713-1.392.14-2.853.278-4.383.418a29.215 29.215 0 002.713-3.131m-2.713 13.565c-.835 1.531-1.878 3.2-3.131 5.009-.835-1.809-1.461-3.478-1.878-5.009h5.009m-9.808 0c.835 3.757 1.947 6.957 3.339 9.601-1.809 2.365-3.617 4.174-5.426 5.426-1.67 1.253-3.34 2.296-5.009 3.131-1.81.974-2.157 1.461-1.044 1.461l2.087-.626c4.87-1.392 8.835-3.339 11.896-5.844 1.81 1.948 3.409 3.27 4.801 3.966 3.339 1.809 5.913 2.226 7.722 1.252 1.252-.696 1.461-1.53.626-2.505l-.835-1.043c-.556-.696-.765-1.392-.626-2.087l1.044-6.679c-.14-.417-.418-.487-.835-.209a86.532 86.532 0 01-3.548 6.053c-.557.417-1.322.348-2.296-.209-.695-.417-1.53-1.183-2.504-2.296.974-.835 2.018-1.947 3.13-3.339l1.253-.417c1.391-.557 1.53-1.322.417-2.296l-3.966-3.34h7.931c.835-.278.905-.835.209-1.669l-3.548-3.757-2.713 3.965h-7.514a68.986 68.986 0 01-.834-7.513l1.878 3.339c.557.974 1.183.974 1.878 0l.418-.626.208-.209c.278.557.487 1.392.626 2.505.14 1.252.766 1.878 1.879 1.878 1.392 0 2.087-.765 2.087-2.296 0-1.112-.974-2.087-2.922-2.921 1.67-.696 3.27-1.392 4.8-2.088v.418c.14.835.278 1.461.418 1.878.278.557.626.904 1.043 1.044 1.531.557 2.505 0 2.922-1.67.418-1.67-.348-3.27-2.296-4.8-.834-.696-2.017-1.252-3.548-1.67l1.67-2.087 1.252-.626c.975-.557 1.113-1.183.418-1.878l-4.174-3.131c-1.67 4.452-3.34 8.348-5.01 11.688a34.013 34.013 0 01-3.756.208c-.14-6.399-.209-10.713-.209-12.938.974 1.112 1.6 2.086 1.878 2.922.14.556.418 1.529.835 2.921.835 1.53 1.948 1.67 3.34.417 1.252-1.391.974-3.061-.835-5.008 1.252-.835 2.713-1.948 4.383-3.34l.626-.209c1.252-.557 1.391-1.182.417-1.878l-4.591-2.922a96.206 96.206 0 01-2.296 7.514c-1.392-.557-2.644-.905-3.757-1.044v-2.713l1.044-.626c.974-.974.904-1.67-.209-2.087l-6.053-.835c.14 5.009.278 8.904.418 11.687l-4.383-3.338a158.2 158.2 0 01-3.131 7.096 247.165 247.165 0 01-2.922 6.052 60.333 60.333 0 01-5.009.209l2.087 3.965c.696 1.392 1.461 1.53 2.296.418l.626-.835a56.89 56.89 0 005.844-2.296l.209 1.044c.417 1.809 1.252 2.504 2.504 2.087 1.948-1.113 2.296-2.853 1.044-5.218-.835-1.392-2.227-2.574-4.174-3.548l3.339-3.757c.695-.139 1.252-.348 1.67-.626a266.18 266.18 0 001.252 15.443h-13.148c-1.112-1.53-3.061-2.644-5.843-3.339v-9.809h5.635c.834-.278.904-.835.208-1.67l-3.13-3.965-2.296 4.174h-.417v-9.809l1.46-.836c1.253-1.252 1.113-2.086-.417-2.504l-6.47-.626v13.774h-7.096l1.252 1.461h5.635c-.557 5.147-1.391 9.53-2.504 13.147-1.113 3.479-2.365 6.609-3.757 9.392-.695 1.948-.487 2.436.626 1.461.696-.557 2.644-2.782 5.844-6.678v15.026c0 .974.487 1.391 1.461 1.252 1.392-.14 2.505-.487 3.339-1.044.418-.278.627-.834.627-1.669V85.648c.834 1.252 1.321 2.087 1.46 2.504.278 1.948.487 3.131.626 3.549.835 1.53 2.018 1.738 3.549.626.834-.557 1.043-1.67.626-3.34h1.669c.14 3.2-.139 6.191-.834 8.975-.696 3.339-2.157 6.47-4.383 9.392-.835 1.53-.278 1.6 1.669.208 1.253-.974 2.018-1.6 2.296-1.878 2.365-1.948 4.035-4.452 5.009-7.513l.835-3.34c.695.696 1.322 2.435 1.878 5.218.696 1.67 1.81 2.018 3.34 1.043.695-.556 1.112-1.183 1.252-1.878.278-1.67-.417-3.131-2.087-4.383-1.113-.695-2.435-1.183-3.966-1.461.14-1.809.278-3.27.418-4.383h5.843m-7.096-11.895c.278.417.556.904.834 1.461.14.417.209.904.209 1.461-1.669.139-2.991.278-3.965.417l2.922-3.339"/><path fill="#6283B5" d="M75.329 24.711c-32.457 0-58.77 26.312-58.77 58.769 0 32.457 26.312 58.771 58.77 58.771 32.457 0 58.77-26.313 58.77-58.771-.001-32.457-26.314-58.769-58.77-58.769zm0 112.196c-13.554 0-25.929-5.048-35.349-13.365l-.426-.66H93.36l6.484-39.402h10.211l2.004-13.356H88.018L83.292 98.84H72.601l7.839-38.734h16.927l2.671-12.689H57.965L47.558 98.84h-23.41a53.392 53.392 0 01-2.246-15.36c0-29.506 23.92-53.427 53.427-53.427s53.427 23.921 53.427 53.427c-.001 29.506-23.921 53.427-53.427 53.427z"/><path fill="#6283B5" d="M143.653 113.901a74.495 74.495 0 006.469-30.422c0-38.829-29.589-70.743-67.447-74.435V0H67.982v9.016l.297.007C30.28 12.576.536 44.549.536 83.479c0 11.531 2.614 22.45 7.274 32.205L0 120.193l7.346 12.724 8.069-4.658c13.641 18.224 35.399 30.019 59.913 30.019 25.215 0 47.499-12.492 61.048-31.611l7.936 4.582 7.347-12.725-8.006-4.623zm-68.324 33.692c-35.408 0-64.112-28.705-64.112-64.113 0-35.407 28.705-64.112 64.112-64.112s64.112 28.705 64.112 64.112c-.001 35.408-28.705 64.113-64.112 64.113z"/></svg>