<svg xmlns="http://www.w3.org/2000/svg" width="681.074" height="158.277" viewBox="0 0 681.074 158.277"><path d="M204.987 93.55c-3.618 3.62-7.026 6.54-10.227 8.767-.417.278-1.183.766-2.295 1.46-2.783 1.67-3.13 1.393-1.044-.834 5.01-4.312 9.184-10.644 12.523-18.99H193.3l-.834-1.462h12.522v-9.6h-4.383a79.943 79.943 0 0 1-2.087 3.548 29.434 29.434 0 0 1-2.504 3.757l-.835 1.252c-.975 1.253-1.323.975-1.044-.835 1.81-5.147 3.06-11.2 3.756-18.156l5.635 2.295c.974.837 1.043 1.602.208 2.298l-.835.417a114.42 114.42 0 0 1-1.67 3.966h3.758V59.117l6.678.835c1.39.417 1.53 1.253.417 2.505l-1.252.834v8.14h5.01l3.34-4.383 4.382 4.174c.696.835.557 1.392-.417 1.67h-12.313v9.6h6.887l3.547-4.8 4.383 4.383c.835.975.696 1.6-.417 1.88H211.46a322.127 322.127 0 0 0 1.877 3.338c1.252 1.95 2.922 3.827 5.01 5.636 2.503 2.227 5.425 4.175 8.765 5.844-2.365 1.113-4.174 2.853-5.426 5.218-2.783-2.644-4.87-5.01-6.26-7.096-1.67-2.505-3.2-5.565-4.593-9.183v17.947c0 .834-.417 1.39-1.252 1.67-1.112.417-2.156.625-3.13.625-.974 0-1.46-.626-1.46-1.878V93.55zm-22.33-2.294c-1.532 2.226-3.062 4.174-4.592 5.844-1.948 1.947-2.574 2.017-1.878.208.278-.417.487-.765.626-1.043 3.06-6.4 5.01-13.774 5.844-22.122h-5.635l-.835-1.46h6.47v-13.36l6.887.628c1.39.417 1.53 1.183.417 2.296l-1.46.835v9.602h.835l2.087-4.174 3.757 3.965c.695.834.556 1.39-.418 1.67H188.5V82.7c3.478.834 5.704 2.226 6.678 4.174 1.113 2.504.557 4.174-1.67 5.01-1.67.416-2.643-.28-2.92-2.088s-.488-2.853-.627-3.13c-.277-.836-.764-1.6-1.46-2.297v21.287c0 .834-.904 1.46-2.712 1.878-2.087.417-3.13 0-3.13-1.252V91.256M264.12 62.47c1.39 0 2.712.138 3.964.417 1.948.557 3.27 1.46 3.965 2.713.695 1.113.834 2.156.416 3.13-1.113 1.948-2.713 2.227-4.8.835-.417-.557-.766-1.46-1.043-2.713-.278-1.252-.905-2.227-1.878-2.922-1.39-.696-1.6-1.183-.626-1.46zm-1.67 11.686c.277 3.896.903 7.583 1.877 11.06 1.53 5.428 3.756 9.393 6.678 11.897 1.948 1.67 3.27 2.018 3.965 1.043.557-.695 1.322-2.018 2.296-3.965l1.46-2.92c.558-.696.835-.488.835.625-.694 3.48-1.042 5.774-1.042 6.887-.14 1.113-.14 1.88 0 2.296.14.278.696 1.252 1.67 2.922.695 1.113.765 2.087.208 2.922-.696 1.113-2.018 1.392-3.965.835a16.23 16.23 0 0 1-4.8-2.087c-6.12-3.757-10.226-9.183-12.312-16.278-1.252-4.313-2.157-9.392-2.713-15.235H231.56l-.416-1.46h25.46l-.207-5.427-.417-7.93 6.678.625c2.087.695 2.366 1.46.835 2.295l-1.252.627c-.138 1.81-.07 5.078.21 9.81h9.182l3.34-4.802 5.217 4.383c.973.975.833 1.6-.418 1.88H262.45M247.422 97.32c4.313-.694 8-1.32 11.06-1.877 1.253-.278 1.88-.21 1.88.21 0 .556-1.6 1.46-4.8 2.712l-4.592 1.878c-4.173 1.67-6.677 2.644-7.512 2.922-1.113.278-2.852.835-5.217 1.67l-.625 1.044c-1.113 1.946-2.226 2.016-3.34.207l-3.756-6.052c4.45-.557 8-1.044 10.643-1.46V84.8h-8.348l-.417-1.46h15.86l3.55-4.8 5.008 4.382c.974.974.834 1.6-.417 1.878h-8.975v12.52M313.942 75.2l4.8 3.965c.974.835.835 1.392-.417 1.67h-22.957l-.417-1.462h15.445l3.547-4.174zm-27.965 25.46c3.34.14 6.61.21 9.81.21 1.39-2.922 2.643-6.68 3.756-11.27h-14.4l-.626-1.462h36.94l3.548-4.59 5.635 4.173c1.113.975.974 1.6-.417 1.88H306.43c1.253.974 1.393 1.738.418 2.295l-1.67.626c-2.364 3.2-4.66 5.983-6.886 8.35 2.922 0 6.748-.07 11.48-.21 5.425-.14 8.277-.208 8.556-.208-1.252-1.948-2.713-3.617-4.383-5.01-2.226-1.39-2.504-2.155-.834-2.295 3.34 1.113 5.983 2.227 7.932 3.34 3.06 1.81 5.078 4.034 6.052 6.678a4.615 4.615 0 0 1 0 3.34c-.696 1.81-1.67 2.573-2.922 2.295-1.39 0-2.365-.765-2.922-2.295-.835-2.365-1.46-3.826-1.878-4.383-9.6 1.81-18.296 3.13-26.087 3.965l-.835 1.253c-.974 1.53-1.948 1.46-2.92-.21l-3.553-6.47m24.21-37.565c2.782 4.452 7.095 8.278 12.938 11.48 1.39.834 3.06 1.6 5.01 2.295 1.808.557 3.478 1.183 5.008 1.878a26.705 26.705 0 0 0-2.922 2.087c-.695.557-1.53 1.74-2.503 3.55a49.632 49.632 0 0 1-5.635-3.758c-3.2-2.505-6.122-5.427-8.766-8.766-1.67-2.225-3.2-4.938-4.59-8.14-5.706 8.905-12.87 15.584-21.497 20.036-.836.557-1.88.975-3.13 1.253-.697-.28-.488-.836.625-1.67A43.885 43.885 0 0 0 288.9 80a62.912 62.912 0 0 0 7.095-7.932c2.783-3.895 5.287-8.417 7.513-13.565l7.096 2.086c1.39.695 1.6 1.32.626 1.878l-1.044.627M371.557 103.18h5.844l3.758-5.01 5.01 4.592c.973.974.834 1.6-.42 1.88h-34.226l-.417-1.462h14.608V79.388H354.86l-.417-1.46h11.27V59.352l6.888.835c1.114.417 1.184 1.182.21 2.295l-1.253.835v14.61h4.383l3.34-4.384 4.59 4.174c.836.835.696 1.392-.416 1.67h-11.896v23.792zM343.59 87.11c-.416.416-1.182 1.042-2.294 1.877-1.67 1.253-3.13 2.227-4.383 2.922-1.252.417-1.322 0-.21-1.253 1.81-1.67 3.48-3.48 5.01-5.426 3.757-4.73 6.608-9.32 8.557-13.773h-13.148l-.417-1.46h6.887v-11.27l6.68 1.042c1.67.694 1.808 1.53.416 2.503l-1.67.627v7.096h1.67l2.087-3.13 4.383 4.173c.835.834.696 1.46-.417 1.878l-1.25.417a34.422 34.422 0 0 1-1.88 2.922c-.695.974-2.226 2.783-4.59 5.427v1.67c2.364.417 4.103.903 5.216 1.46 1.948 1.113 2.922 2.574 2.922 4.383 0 1.53-.557 2.435-1.67 2.713-1.67.418-2.713-.07-3.13-1.46-.835-2.923-1.948-4.94-3.34-6.053v21.078c.14.835-.348 1.46-1.46 1.88-1.253.556-2.296.764-3.13.625-.418-.14-.696-.487-.836-1.044V87.11M433.027 73.112c1.39.557 3.13 1.6 5.217 3.13 1.253.975 1.53 2.02.835 3.13-.418.558-1.184.697-2.296.42-.975-.28-2.157-.488-3.55-.627-1.39-.14-4.033-.278-7.93-.418 0 1.392-.14 2.992-.417 4.8-.557 4.73-1.6 8.35-3.13 10.854-1.392 2.227-3.618 4.522-6.68 6.888-2.504 1.81-5.495 3.41-8.974 4.8-1.113.418-1.252.21-.417-.626l2.504-1.67c2.087-1.39 4.035-3.2 5.844-5.426 1.392-1.67 2.574-3.688 3.548-6.053 1.392-3.2 2.087-7.722 2.087-13.565-4.313 0-7.86.278-10.645.835.14 1.67.21 3.826.21 6.47 0 2.365-.07 3.826-.21 4.383-1.392 1.81-3.06 1.67-5.01-.417-.556-.697-.764-1.393-.625-2.088.278-1.53.417-2.574.417-3.13v-4.384c-.834.278-1.738.557-2.713.835l-1.67.417c-.556.14-1.252.418-2.087.835-.417.278-.974.21-1.67-.21-.417-.277-.903-.694-1.46-1.25-1.113-.975-1.81-1.74-2.087-2.297-.696-2.226-.487-3.826.626-4.8.695.974 1.252 1.74 1.67 2.296.695.695 1.67.974 2.92.835 2.645-.28 4.802-.488 6.47-.627-.138-5.01-.347-7.86-.625-8.558-.138-.417-1.182-1.113-3.13-2.086.14-.28.418-.558.836-.837.417-.277.904-.557 1.46-.834 1.253-.28 3.55.556 6.888 2.503.835.418 1.043 1.044.626 1.88l-.835 1.67v5.842l10.644-.835c-.14-6.678-.28-10.295-.418-10.852-.14-.557-.557-1.044-1.252-1.46-.418-.14-1.113-.42-2.087-.837.14-.416.417-.764.834-1.042.835-.557 1.46-.835 1.88-.835.834 0 2.225.487 4.173 1.46 2.227 1.114 3.48 2.02 3.757 2.715.278.557-.14 1.252-1.253 2.086v8.14c2.227 0 4.244-.07 6.053-.208l1.67-1.254zM456.874 79.555c-2.087.278-3.687-1.253-4.8-4.592-1.252-3.06-2.99-5.356-5.218-6.887-.974-.695-1.878-1.252-2.713-1.67-.417-.278-.348-.486.21-.626.694-.14 2.643.14 5.843.835 5.565 1.252 8.695 3.756 9.392 7.513.556 3.34-.348 5.148-2.714 5.427zm-11.06 15.234c.556.974 1.042 1.81 1.46 2.504.278.417 1.043.417 2.296 0 2.782-.835 6.052-2.227 9.81-4.174a87.35 87.35 0 0 0 9.39-5.427c5.845-3.756 11.062-7.86 15.653-12.312l.835-.835c1.67-1.112 2.018-.834 1.044.836-3.618 5.287-8.28 10.505-13.983 15.653-4.87 4.452-10.992 8.626-18.366 12.52-.696 1.393-1.253 2.158-1.67 2.297-.974.278-2.713-.904-5.218-3.548-1.113-1.113-1.81-1.948-2.087-2.505-.837-2.225-.56-3.895.833-5.008M523.784 68.925c-3.2 0-5.635.07-7.305.208-4.175.28-9.184.975-15.027 2.088-1.67.278-3.062.766-4.174 1.462-1.114.695-2.366.417-3.758-.836-.557-.416-1.392-1.182-2.505-2.295-.974-.974-1.53-1.946-1.67-2.92-.14-1.114.14-1.81.835-2.088.418.417 1.184.974 2.296 1.67.975.556 1.88.835 2.714.835 2.504-.14 7.652-.557 15.443-1.253l15.443-1.044 2.505-2.295c1.53.974 3.2 2.435 5.01 4.383 1.67 1.81 2.364 3.06 2.086 3.756-.14.418-.766.696-1.88.836-.695.14-1.6.208-2.712.208-5.287 2.782-10.366 5.147-15.235 7.096-1.392 5.427-2.644 9.253-3.757 11.48-1.948 3.895-4.52 7.234-7.722 10.017-1.253 1.114-3.27 2.436-6.053 3.967-1.668.834-2.017.695-1.042-.418 1.81-1.53 3.2-2.992 4.174-4.384 2.365-3.2 4.104-6.54 5.218-10.018.417-1.53.904-3.617 1.46-6.26.696-3.758.835-5.845.418-6.262-.417-.418-1.322-.975-2.713-1.67.278-.557.695-.904 1.252-1.043.974-.28 1.878-.348 2.713-.21 1.113.28 3.2 1.53 6.26 3.758a66.985 66.985 0 0 0 7.724-8.765zM552.82 81.864c-4.034 2.644-7.582 4.66-10.643 6.052-2.783 1.253-5.844 2.365-9.184 3.34-2.087.557-1.74 0 1.044-1.67 1.113-.557 3.13-1.81 6.053-3.757 6.54-4.313 12.87-10.02 18.99-17.114.558-.696 1.253-1.53 2.088-2.505.695-.833 1.044-1.46 1.044-1.877 0-.695-.904-1.46-2.714-2.296.418-.557 1.113-.904 2.088-1.043 1.252-.14 2.504.278 3.756 1.252l1.88 1.46c.833.696 1.668 1.6 2.503 2.714 1.252 1.252.835 2.296-1.252 3.13-.974.14-1.81.558-2.505 1.253a350.82 350.82 0 0 1-7.93 6.888l1.252.627c.974.835.904 1.67-.21 2.504l-.625.21c0 2.504.07 6.957.21 13.356v3.966c.138 1.39.207 2.435.207 3.13 0 1.113-.14 2.087-.417 2.922-.418 1.392-1.46 2.018-3.13 1.88-1.253-.14-2.227-1.114-2.923-2.923-.278-.695-.348-1.6-.208-2.712.14-.557.278-1.322.417-2.296.28-1.53.42-4.66.42-9.392 0-1.53-.07-3.896-.21-7.096zM617.532 84.8v4.383h-11.48V84.8h11.48zm0 12.104v2.505c0 .973-.14 1.6-.418 1.877-.417.278-1.183.348-2.295.21-1.67-.14-3.132-.21-4.384-.21-.557.417-.557.695 0 .835l3.756 1.46c.696.28 1.044.696 1.044 1.253 0 1.113.07 1.81.21 2.087.277.418.764.557 1.46.418a9.468 9.468 0 0 0 4.174-1.88c.974-.694 1.53-1.46 1.67-2.295.14-.417.208-1.39.208-2.922V86.887l.418-.21c1.113-.694 1.252-1.46.417-2.294l-5.218-3.966-1.878 2.922H606.47l-5.844-2.506v25.67c0 .836.278 1.253.835 1.253.42 0 1.393-.14 2.923-.417 1.113-.278 1.67-.766 1.67-1.46v-8.976h11.48m-18.575-28.8c.974-.695 1.113-1.252.417-1.67l-4.8-2.922c-.557 3.758-1.67 7.932-3.34 12.522-.556 1.948-.07 2.156 1.46.626 2.228-2.782 4.176-5.564 5.845-8.348l.418-.208m-20.036-.21c.417 1.253.626 3.202.626 5.845 0 1.53.14 2.573.417 3.13 1.113.974 2.365.766 3.757-.626.695-.974.974-2.018.835-3.13-.278-2.366-1.252-4.244-2.922-5.636L579.34 65.6c-1.253.138-1.392.904-.418 2.295m6.887 38.61c0 .695.417 1.043 1.25 1.043.976 0 1.88-.14 2.714-.417.696-.277 1.044-.765 1.044-1.46V87.304c.974 1.253 1.74 2.992 2.296 5.218.417 2.087 1.46 2.853 3.13 2.296 2.088-1.113 2.436-2.922 1.044-5.426-1.113-1.67-3.27-2.783-6.47-3.34v-4.59h7.514c1.67 0 1.878-.628.626-1.88h27.34c.974-.278 1.112-.835.417-1.67l-4.174-4.174-3.338 4.383h-5.427v-4.59h10.435c.975-.278 1.113-.835.418-1.67l-4.174-3.548-2.922 3.756h-3.757v-4.59h11.688c.974-.28 1.112-.836.417-1.67l-3.965-3.966-3.548 4.174h-4.592v-3.13l1.044-.418c1.668-1.252 1.53-2.087-.42-2.504l-6.47-.626v6.678h-8.14l.628 1.46h7.513v4.592H600l.626 1.46h7.305v4.593h-10.017l-2.504-2.295L592.487 80h-1.67V62.887l.835-.627c.835-1.113.766-1.878-.21-2.295l-5.634-.626V80h-8.558l.626 1.46h7.305c-1.252 5.01-2.574 8.975-3.966 11.897a59.935 59.935 0 0 1-3.756 6.47c-.556 1.252-.07 1.392 1.462.417a13.524 13.524 0 0 0 1.46-1.252c1.392-1.392 3.2-3.548 5.427-6.47v13.983m31.722-15.86v4.8h-11.48v-4.8h11.48M657.2 63.734c1.112-.557 1.25-1.112.416-1.67l-5.01-3.338c-1.112 4.73-1.877 7.653-2.295 8.766-.556-.418-1.39-.836-2.503-1.253-1.81-.418-2.156-.07-1.044 1.043.835.834 1.392 2.156 1.67 3.965.278 1.67.904 2.574 1.878 2.713.697.42 1.393.07 2.09-1.042.973-1.113.625-2.644-1.045-4.592l4.8-4.174 1.044-.418zm16.903 11.688c.835.835 1.392 1.74 1.67 2.713-1.392.14-2.853.278-4.383.418a29.215 29.215 0 0 0 2.713-3.13m-2.713 13.564c-.835 1.53-1.878 3.2-3.13 5.01-.836-1.81-1.462-3.48-1.88-5.01h5.01m-9.808 0c.835 3.757 1.947 6.957 3.34 9.6-1.81 2.366-3.618 4.175-5.427 5.427-1.67 1.253-3.34 2.296-5.01 3.13-1.81.975-2.156 1.462-1.043 1.462l2.087-.626c4.87-1.392 8.834-3.34 11.895-5.844 1.81 1.948 3.41 3.27 4.8 3.966 3.34 1.81 5.914 2.226 7.723 1.252 1.252-.696 1.46-1.53.626-2.505l-.835-1.044c-.557-.696-.766-1.392-.627-2.087l1.044-6.68c-.14-.417-.418-.487-.835-.21a86.532 86.532 0 0 1-3.548 6.054c-.557.417-1.322.348-2.296-.21-.695-.416-1.53-1.182-2.504-2.295.974-.836 2.018-1.948 3.13-3.34l1.253-.417c1.39-.557 1.53-1.322.417-2.296l-3.966-3.34h7.93c.836-.278.906-.835.21-1.67l-3.548-3.756-2.713 3.966h-7.514a68.986 68.986 0 0 1-.834-7.513l1.877 3.34c.557.973 1.183.973 1.878 0l.418-.627.208-.21c.28.558.488 1.393.627 2.506.14 1.252.766 1.878 1.88 1.878 1.39 0 2.086-.765 2.086-2.296 0-1.112-.974-2.087-2.922-2.92a163.5 163.5 0 0 0 4.8-2.09v.42c.14.834.28 1.46.42 1.877.277.558.625.905 1.042 1.045 1.53.557 2.505 0 2.922-1.67.418-1.67-.348-3.27-2.296-4.8-.834-.696-2.017-1.252-3.548-1.67l1.67-2.087 1.252-.626c.975-.557 1.113-1.183.418-1.878l-4.174-3.13c-1.67 4.45-3.34 8.347-5.01 11.687-1.252.14-2.504.21-3.756.21-.14-6.4-.21-10.714-.21-12.94.975 1.113 1.6 2.087 1.88 2.923.14.556.417 1.53.834 2.92.835 1.53 1.948 1.67 3.34.418 1.252-1.39.974-3.06-.835-5.007 1.25-.835 2.712-1.948 4.382-3.34l.626-.21c1.252-.556 1.39-1.18.417-1.877l-4.59-2.922a96.206 96.206 0 0 1-2.297 7.514c-1.392-.557-2.644-.905-3.757-1.044V62.69l1.045-.625c.974-.974.904-1.67-.21-2.087l-6.052-.835c.14 5.01.278 8.904.418 11.687l-4.382-3.338a158.2 158.2 0 0 1-3.13 7.096 247.165 247.165 0 0 1-2.923 6.052c-1.67.14-3.34.21-5.01.21l2.088 3.964c.696 1.392 1.46 1.53 2.296.418l.625-.835a56.89 56.89 0 0 0 5.844-2.296l.208 1.045c.417 1.81 1.252 2.504 2.504 2.087 1.948-1.113 2.296-2.853 1.044-5.218-.835-1.392-2.227-2.574-4.174-3.548l3.34-3.757c.694-.14 1.25-.35 1.67-.627a266.18 266.18 0 0 0 1.25 15.443h-13.147c-1.112-1.53-3.06-2.644-5.843-3.34V74.38h5.635c.834-.278.904-.835.208-1.67l-3.13-3.965-2.296 4.174h-.418v-9.81l1.46-.835c1.253-1.252 1.113-2.086-.417-2.504l-6.47-.626v13.774h-7.096l1.25 1.46h5.636c-.557 5.148-1.39 9.53-2.504 13.148-1.113 3.48-2.365 6.61-3.757 9.392-.695 1.948-.487 2.436.626 1.46.697-.556 2.645-2.78 5.845-6.677v15.025c0 .974.487 1.39 1.46 1.252 1.393-.14 2.506-.487 3.34-1.044.418-.278.627-.834.627-1.67V85.65c.834 1.252 1.32 2.087 1.46 2.504.278 1.948.487 3.13.626 3.55.835 1.53 2.018 1.737 3.55.625.833-.557 1.042-1.67.625-3.34h1.67c.14 3.2-.14 6.19-.835 8.975-.696 3.34-2.157 6.47-4.383 9.392-.835 1.53-.278 1.6 1.67.208 1.252-.974 2.017-1.6 2.295-1.878 2.365-1.948 4.035-4.452 5.01-7.513l.834-3.34c.695.697 1.322 2.436 1.878 5.22.696 1.67 1.81 2.017 3.34 1.042.695-.556 1.112-1.183 1.252-1.878.278-1.67-.417-3.13-2.087-4.383-1.113-.694-2.435-1.182-3.966-1.46.14-1.81.28-3.27.42-4.383h5.842m-7.096-11.895c.278.417.556.904.834 1.46.14.418.21.905.21 1.462-1.67.14-2.992.278-3.966.417l2.922-3.338"/><path fill="#6283B5" d="M75.33 24.71c-32.458 0-58.77 26.313-58.77 58.77 0 32.457 26.31 58.77 58.77 58.77 32.456 0 58.77-26.312 58.77-58.77-.002-32.457-26.315-58.77-58.77-58.77zm0 112.197c-13.555 0-25.93-5.048-35.35-13.365l-.426-.66H93.36l6.484-39.402h10.21l2.005-13.356H88.017L83.292 98.84h-10.69l7.838-38.734h16.927l2.67-12.69H57.966L47.558 98.84h-23.41a53.392 53.392 0 0 1-2.246-15.36c0-29.506 23.92-53.427 53.427-53.427s53.426 23.92 53.426 53.427c0 29.506-23.92 53.427-53.427 53.427z"/><path fill="#6283B5" d="M143.653 113.9a74.495 74.495 0 0 0 6.47-30.42c0-38.83-29.59-70.744-67.448-74.436V0H67.982v9.016l.297.007C30.28 12.576.535 44.55.535 83.48c0 11.53 2.614 22.45 7.274 32.204L0 120.194l7.346 12.723 8.07-4.658c13.64 18.223 35.398 30.018 59.912 30.018 25.215 0 47.5-12.492 61.048-31.61l7.936 4.58 7.347-12.724-8.007-4.623zM75.33 147.594c-35.41 0-64.113-28.705-64.113-64.113 0-35.407 28.705-64.112 64.112-64.112s64.11 28.705 64.11 64.112c0 35.408-28.704 64.113-64.11 64.113z"/></svg>