<?xml version="1.0" encoding="utf-8"?>
<!-- Generator: Adobe Illustrator 16.0.0, SVG Export Plug-In . SVG Version: 6.00 Build 0)  -->
<!DOCTYPE svg PUBLIC "-//W3C//DTD SVG 1.1//EN" "http://www.w3.org/Graphics/SVG/1.1/DTD/svg11.dtd">
<svg version="1.1" id="レイヤー_1" xmlns="http://www.w3.org/2000/svg" xmlns:xlink="http://www.w3.org/1999/xlink" x="0px"
	 y="0px" width="704.123px" height="473.195px" viewBox="0 0 704.123 473.195" enable-background="new 0 0 704.123 473.195"
	 xml:space="preserve">
<g>
	<path fill="#A28342" d="M263.503,455.109c0,6.627-5.373,12-12,12H78.999c-6.627,0-12-5.373-12-12v-53.631c0-6.627,5.373-12,12-12
		h172.505c6.627,0,12,5.373,12,12L263.503,455.109L263.503,455.109z"/>
	<text transform="matrix(1 0 0 1 105.093 354.7029)" fill="#37476A" font-family="'HiraKakuPro-W6-83pv-RKSJ-H'" font-size="12">地域の企業と連携した</text>
	<text transform="matrix(1 0 0 1 111.093 375.7029)" fill="#37476A" font-family="'HiraKakuPro-W6-83pv-RKSJ-H'" font-size="12">新しい南部鉄瓶作り</text>
	<text transform="matrix(1 0 0 1 151.0935 421.3054)" fill="#F7F8F8" font-family="'HiraKakuPro-W6-83pv-RKSJ-H'" font-size="14">及富</text>
	<text transform="matrix(1 0 0 1 130.0935 445.8054)" fill="#F7F8F8" font-family="'HiraKakuPro-W6-83pv-RKSJ-H'" font-size="14">藤幸製作所</text>
</g>
<g>
	<path fill="#A28342" d="M636.186,454.601c0,6.627-5.373,12-12,12H451.681c-6.627,0-12-5.373-12-12V400.97c0-6.627,5.373-12,12-12
		h172.505c6.627,0,12,5.373,12,12V454.601L636.186,454.601z"/>
	<text transform="matrix(1 0 0 1 465.7761 373.9314)" fill="#37476A" font-family="'HiraKakuPro-W6-83pv-RKSJ-H'" font-size="12">コーディネート、知財相談</text>
	<text transform="matrix(1 0 0 1 467.7761 420.7966)" fill="#F7F8F8" font-family="'HiraKakuPro-W6-83pv-RKSJ-H'" font-size="14">岩手産業振興センター</text>
	<text transform="matrix(1 0 0 1 488.7761 445.2966)" fill="#F7F8F8" font-family="'HiraKakuPro-W6-83pv-RKSJ-H'" font-size="14">岩手県南振興局</text>
</g>
<g>
	<path fill="#A28342" d="M200.367,243.398c0,6.627-5.373,12-12,12H15.862c-6.627,0-12-5.373-12-12v-53.631c0-6.627,5.373-12,12-12
		h172.505c6.627,0,12,5.373,12,12V243.398z"/>
	<text transform="matrix(1 0 0 1 23.9563 162.7283)" fill="#37476A" font-family="'HiraKakuPro-W6-83pv-RKSJ-H'" font-size="12">板金、焼入れや表面処理など</text>
	<text transform="matrix(1 0 0 1 66.9568 209.5945)" fill="#F7F8F8" font-family="'HiraKakuPro-W6-83pv-RKSJ-H'" font-size="14">北日本通信</text>
	<text transform="matrix(1 0 0 1 66.9568 234.0945)" fill="#F7F8F8" font-family="'HiraKakuPro-W6-83pv-RKSJ-H'" font-size="14">伊藤熱処理</text>
</g>
<g>
	<path fill="#A28342" d="M450.291,94.629c0,6.627-5.372,12-12,12H265.786c-6.627,0-12-5.373-12-12v-53.63c0-6.627,5.373-12,12-12
		h172.506c6.627,0,12,5.373,12,12L450.291,94.629L450.291,94.629z"/>
	<text transform="matrix(1 0 0 1 266.1409 13.9607)" fill="#37476A" font-family="'HiraKakuPro-W6-83pv-RKSJ-H'" font-size="12">3</text>
	<text transform="matrix(1 0 0 1 274.6848 13.9607)" fill="#37476A" font-family="'HiraKakuPro-W6-83pv-RKSJ-H'" font-size="12">D</text>
	<text transform="matrix(1 0 0 1 284.717 14.2224)" fill="#37476A" font-family="'HiraKakuPro-W6-83pv-RKSJ-H'" font-size="12">スキャン、</text>
	<text transform="matrix(1 0 0 1 344.717 13.9607)" fill="#37476A" font-family="'HiraKakuPro-W6-83pv-RKSJ-H'" font-size="12">3</text>
	<text transform="matrix(1 0 0 1 353.6208 14.2224)" fill="#37476A" font-family="'HiraKakuPro-W6-83pv-RKSJ-H'" font-size="12">次元測定器など</text>
	<text transform="matrix(1 0 0 1 288.8811 60.8259)" fill="#F7F8F8" font-family="'HiraKakuPro-W6-83pv-RKSJ-H'" font-size="14">北上市基盤センター</text>
	<text transform="matrix(1 0 0 1 274.8811 85.3259)" fill="#F7F8F8" font-family="'HiraKakuPro-W6-83pv-RKSJ-H'" font-size="14">岩手県工業技術センター</text>
</g>
<g>
	<path fill="#A28342" d="M700.865,242.89c0,6.627-5.373,12-12,12H516.36c-6.627,0-12-5.373-12-12v-53.632c0-6.627,5.373-12,12-12
		h172.505c6.627,0,12,5.373,12,12V242.89z"/>
	<text transform="matrix(1 0 0 1 518.4558 162.2205)" fill="#37476A" font-family="'HiraKakuPro-W6-83pv-RKSJ-H'" font-size="12">磁気回路の相談、磁束密度検査</text>
	<text transform="matrix(1 0 0 1 553.4558 209.0857)" fill="#F7F8F8" font-family="'HiraKakuPro-W6-83pv-RKSJ-H'" font-size="14">岩手大学工学部</text>
	<text transform="matrix(1 0 0 1 525.4558 233.5857)" fill="#F7F8F8" font-family="'HiraKakuPro-W6-83pv-RKSJ-H'" font-size="14">岩手県工業技術センター</text>
</g>
<circle fill="none" stroke="#667DB1" stroke-width="14" stroke-miterlimit="10" cx="351.881" cy="263.309" r="103.609"/>
<g>
	<rect x="271.751" y="250.56" fill="#576B98" width="29.495" height="4.668"/>
	<rect x="271.751" y="274.631" fill="#576B98" width="29.495" height="4.668"/>
	<rect x="271.751" y="262.596" fill="#576B98" width="29.495" height="4.668"/>
	<g>
		<path fill="#37476A" d="M311.856,278.187v-5.302c1.337,0.532,2.763,0.965,4.276,1.293c1.516,0.324,2.984,0.487,4.41,0.487
			c2.229,0,3.795-0.208,4.701-0.624c0.904-0.416,1.358-1.274,1.358-2.583c0-0.86-0.208-1.544-0.623-2.05
			c-0.417-0.504-1.101-0.941-2.05-1.313c-0.951-0.371-2.438-0.839-4.455-1.403c-3-0.831-5.109-1.871-6.327-3.119
			s-1.827-2.969-1.827-5.168c0-2.642,0.964-4.678,2.896-6.103c1.93-1.427,4.737-2.14,8.42-2.14c1.663,0,3.244,0.111,4.745,0.333
			c1.499,0.224,2.726,0.514,3.675,0.87v5.302c-2.437-0.921-4.976-1.382-7.617-1.382c-2.021,0-3.528,0.223-4.523,0.669
			c-0.995,0.445-1.492,1.262-1.492,2.449c0,0.743,0.187,1.337,0.559,1.783c0.371,0.444,0.994,0.839,1.871,1.18
			c0.876,0.342,2.234,0.75,4.077,1.226c3.324,0.892,5.628,2.042,6.905,3.452c1.277,1.412,1.915,3.217,1.915,5.414
			c0,2.583-0.979,4.61-2.939,6.081c-1.959,1.472-4.856,2.205-8.687,2.205C317.291,279.745,314.203,279.227,311.856,278.187z"/>
		<path fill="#37476A" d="M338.809,277.608c-1.396-1.426-2.094-3.491-2.094-6.194v-13.231h6.016v13.099
			c0,1.396,0.334,2.421,1.002,3.072c0.668,0.653,1.7,0.981,3.096,0.981c1.01,0,1.953-0.2,2.83-0.602
			c0.875-0.4,1.64-0.929,2.293-1.581v-14.971h6.017v21.116h-5.569l-0.223-2.004c-2.05,1.635-4.53,2.45-7.44,2.45
			C342.18,279.745,340.205,279.031,338.809,277.608z"/>
		<path fill="#37476A" d="M363.089,258.182h5.569l0.223,2.006c0.95-0.713,2.078-1.299,3.388-1.76c1.307-0.459,2.656-0.69,4.054-0.69
			c2.762,0,4.79,0.646,6.082,1.938c1.291,1.292,1.938,3.319,1.938,6.08v13.543h-6.015v-13.23c0-1.455-0.298-2.472-0.891-3.052
			c-0.596-0.578-1.665-0.867-3.207-0.867c-0.921,0-1.845,0.199-2.764,0.6c-0.921,0.401-1.709,0.929-2.361,1.582v14.968h-6.016
			V258.182L363.089,258.182z"/>
		<path fill="#37476A" d="M403.765,250.609h6.594l10.914,28.688h-6.236l-2.718-6.904H401.76l-2.674,6.904h-6.28L403.765,250.609z
			 M411.428,267.761l-4.411-11.539l-4.366,11.539H411.428z"/>
		<path fill="#37476A" d="M425.95,259.207h6.017v20.092h-6.016L425.95,259.207z M425.951,250.609h6.06v4.722h-6.06V250.609z"/>
	</g>
</g>
<g>
	<g>
		
			<line fill="none" stroke="#B0B8D5" stroke-width="10" stroke-miterlimit="10" x1="351.88" y1="102.629" x2="351.88" y2="138.173"/>
		<g>
			<polygon fill="#B0B8D5" points="336.921,133.796 351.879,159.701 366.838,133.796 			"/>
		</g>
	</g>
</g>
<g>
	<g>
		
			<line fill="none" stroke="#B0B8D5" stroke-width="10" stroke-miterlimit="10" x1="197.503" y1="214.955" x2="233.312" y2="226.59"/>
		<g>
			<polygon fill="#B0B8D5" points="224.527,239.464 253.786,233.244 233.771,211.012 			"/>
		</g>
	</g>
</g>
<g>
	<g>
		
			<line fill="none" stroke="#B0B8D5" stroke-width="10" stroke-miterlimit="10" x1="256.594" y1="396.264" x2="279.297" y2="365.017"/>
		<g>
			<polygon fill="#B0B8D5" points="288.826,377.351 291.951,347.602 264.623,359.766 			"/>
		</g>
	</g>
</g>
<g>
	<g>
		
			<line fill="none" stroke="#B0B8D5" stroke-width="10" stroke-miterlimit="10" x1="447.214" y1="396.332" x2="424.533" y2="365.114"/>
		<g>
			<polygon fill="#B0B8D5" points="439.208,359.863 411.882,347.697 415.006,377.447 			"/>
		</g>
	</g>
</g>
<g>
	<g>
		
			<line fill="none" stroke="#B0B8D5" stroke-width="10" stroke-miterlimit="10" x1="506.36" y1="214.921" x2="470.765" y2="226.486"/>
		<g>
			<polygon fill="#B0B8D5" points="470.306,210.906 450.291,233.136 479.551,239.359 			"/>
		</g>
	</g>
</g>
</svg>
