<?xml version="1.0" encoding="utf-8"?>
<!-- Generator: Adobe Illustrator 16.0.0, SVG Export Plug-In . SVG Version: 6.00 Build 0)  -->
<!DOCTYPE svg PUBLIC "-//W3C//DTD SVG 1.1 Tiny//EN" "http://www.w3.org/Graphics/SVG/1.1/DTD/svg11-tiny.dtd">
<svg version="1.1" baseProfile="tiny" id="レイヤー_1"
	 xmlns="http://www.w3.org/2000/svg" xmlns:xlink="http://www.w3.org/1999/xlink" x="0px" y="0px" width="5187px" height="448px"
	 viewBox="0 0 5187 448" xml:space="preserve">
<g id="icomoon-ignore">
</g>
<path fill="#FFFFFF" d="M258.709,311.83c-32.194,32.194-62.515,58.192-90.988,77.992c-3.721,2.483-10.526,6.812-20.43,12.995
	c-24.759,14.863-27.858,12.387-9.288-7.428c44.574-38.37,81.713-94.702,111.425-168.974h-94.709l-7.428-12.995h111.418v-85.427h-39
	c-6.19,11.149-12.387,21.668-18.57,31.572c-6.183,11.148-13.618,22.291-22.284,33.418c-2.476,3.714-4.952,7.428-7.428,11.142
	c-8.666,11.143-11.764,8.666-9.288-7.435c16.094-45.805,27.235-99.646,33.425-161.545l50.135,20.416
	c8.658,7.435,9.287,14.24,1.859,20.443l-7.428,3.715c-4.952,12.387-9.904,24.137-14.856,35.285h33.426V5.449l59.423,7.428
	c12.38,3.7,13.61,11.143,3.721,22.284l-11.142,7.421v72.433h44.566l29.719-38.993l38.993,37.139
	c6.197,7.428,4.959,12.38-3.707,14.856H310.695v85.42h61.283l31.565-42.707l39,38.979c7.428,8.666,6.183,14.24-3.722,16.724H316.269
	c6.184,11.142,11.765,21.037,16.709,29.712c11.149,17.339,25.998,34.033,44.574,50.134c22.284,19.809,48.273,37.146,77.992,52.002
	c-21.046,9.897-37.14,25.382-48.281,46.421c-24.759-23.521-43.329-44.566-55.702-63.13c-14.855-22.291-28.473-49.52-40.853-81.706
	V419.57c0,7.421-3.707,12.373-11.135,14.842c-9.904,3.722-19.192,5.574-27.858,5.574c-8.659,0-12.995-5.574-12.995-16.716V311.845
	h-0.014L258.709,311.83z M60.01,291.413c-13.625,19.802-27.235,37.14-40.853,51.995c-17.34,17.332-22.906,17.94-16.717,1.854
	c2.477-3.707,4.337-6.806,5.567-9.281c27.228-56.947,44.56-122.56,51.995-196.838H9.869L2.441,126.14h57.562V7.301l61.283,5.581
	c12.38,3.693,13.61,10.513,3.707,20.424l-12.995,7.428v85.42h7.428l18.57-37.146l33.425,35.279
	c6.189,7.421,4.952,12.38-3.707,14.863h-55.702v76.132c30.949,7.421,50.75,19.801,59.423,37.146
	c9.911,22.283,4.952,37.139-14.855,44.56c-14.863,3.707-23.521-2.476-25.998-18.57c-2.477-16.087-4.336-25.382-5.567-27.844
	c-2.476-7.428-6.812-14.233-12.995-20.43v189.424c0,7.421-8.05,12.988-24.15,16.702c-18.57,3.707-27.845,0-27.845-11.142V291.433
	H60.01V291.413z"/>
<path fill="#FFFFFF" d="M854.782,35.279c12.38,0,24.138,1.231,35.272,3.714c17.339,4.952,29.103,13.002,35.286,24.137
	c6.189,9.904,7.428,19.186,3.714,27.858c-9.904,17.332-24.137,19.801-42.707,7.428c-3.721-4.959-6.812-13.002-9.288-24.137
	s-8.05-19.814-16.716-26.005C847.971,42.091,846.117,37.755,854.782,35.279L854.782,35.279L854.782,35.279z M839.927,139.275
	c2.476,34.656,8.05,67.473,16.716,98.416c13.611,48.281,33.425,83.561,59.423,105.85c17.332,14.843,29.104,17.94,35.286,9.274
	c4.952-6.183,11.764-17.94,20.43-35.272l12.995-26.005c4.952-6.183,7.428-4.329,7.428,5.567
	c-6.183,30.956-9.288,51.387-9.288,61.276c-1.23,9.903-1.23,16.716,0,20.43c1.245,2.483,6.19,11.148,14.863,26.005
	c6.184,9.904,6.812,18.57,1.86,25.998c-6.19,9.904-17.954,12.38-35.279,7.428c-14.856-3.707-29.089-9.896-42.707-18.569
	c-54.478-33.418-90.988-81.699-109.563-144.83c-11.149-38.377-19.192-83.56-24.151-135.562H565.111l-3.714-13.002h226.549
	l-1.859-48.274l-3.715-70.57l59.424,5.581c18.569,6.183,21.046,13.002,7.428,20.423l-11.135,5.574
	c-1.231,16.101-0.616,45.188,1.859,87.273h81.706l29.718-42.714l46.42,38.986c8.659,8.673,7.429,14.247-3.714,16.729
	L839.927,139.275L839.927,139.275z M706.226,345.388c38.377-6.197,71.173-11.757,98.416-16.716
	c11.149-2.477,16.716-1.854,16.716,1.859c0,4.952-14.24,13.002-42.707,24.138l-40.853,16.709
	c-37.146,14.862-59.423,23.527-66.851,25.998c-9.903,2.482-25.368,7.435-46.42,14.862l-5.566,9.288
	c-9.904,17.332-19.809,17.94-29.713,1.847l-33.425-53.841c39.608-4.959,71.173-9.295,94.709-13.002V233.979h-74.277l-3.714-13.002
	h141.121l31.565-42.707l44.574,38.993c8.659,8.658,7.428,14.232-3.722,16.716h-79.846v111.432h-0.007L706.226,345.388z"/>
<path fill="#FFFFFF" d="M1382.028,148.55l42.714,35.286c8.666,7.429,7.436,12.38-3.707,14.843h-204.266l-3.721-13.003h137.415
	L1382.028,148.55L1382.028,148.55z M1133.195,375.093c29.718,1.245,58.808,1.859,87.281,1.859
	c12.38-25.998,23.521-59.423,33.425-100.276h-128.134l-5.574-12.987h328.679l31.579-40.854l50.134,37.146
	c9.904,8.659,8.666,14.226-3.707,16.702h-211.693c11.142,8.666,12.38,15.484,3.707,20.43l-14.856,5.574
	c-21.045,28.466-41.475,53.226-61.282,74.271c25.998,0,60.037-0.615,102.137-1.859c48.281-1.245,73.663-1.86,76.139-1.86
	c-11.135-17.332-24.137-32.187-38.993-44.566c-19.808-12.388-22.276-19.179-7.428-20.431c29.705,9.911,53.226,19.809,70.558,29.712
	c27.234,16.102,45.182,35.895,53.854,59.416c3.714,9.897,3.714,19.814,0,29.712c-6.183,16.095-14.856,22.886-25.998,20.424
	c-12.38,0-21.045-6.806-25.998-20.424c-7.428-21.046-12.995-34.04-16.709-38.985c-85.42,16.087-162.79,27.83-232.117,35.271
	l-7.428,11.149c-8.659,13.604-17.332,12.988-25.998-1.854l-31.579-57.568L1133.195,375.093z M1348.609,40.846
	c24.759,39.614,63.13,73.655,115.125,102.137c12.38,7.428,27.235,14.24,44.574,20.43c16.094,4.952,30.949,10.52,44.56,16.702
	c-9.903,6.197-18.569,12.387-25.998,18.57c-6.189,4.952-13.61,15.484-22.283,31.579c-17.332-9.897-34.041-21.061-50.135-33.418
	c-28.473-22.284-54.471-48.288-77.992-77.992c-14.855-19.809-28.473-43.952-40.846-72.425
	c-50.764,79.223-114.516,138.646-191.264,178.269c-7.428,4.952-16.709,8.666-27.844,11.142c-6.197-2.476-4.336-7.428,5.566-14.862
	c12.38-8.652,24.76-18.57,37.146-29.704c23.521-22.291,44.56-45.812,63.13-70.564c24.759-34.663,47.043-74.894,66.85-120.698
	l63.136,18.556c12.381,6.197,14.24,11.764,5.567,16.729l-9.295,5.554L1348.609,40.846z"/>
<path fill="#FFFFFF" d="M1957.609,397.51h51.995l33.425-44.567l44.574,40.846c8.659,8.652,7.428,14.24-3.721,16.709h-304.535
	l-3.707-12.987h129.979V185.822h-96.555l-3.721-13.002h100.275V7.547l61.283,7.429c9.911,3.707,10.526,10.512,1.848,20.423
	l-11.136,7.428v129.987h39l29.705-39l40.853,37.146c7.429,7.429,6.184,12.38-3.707,14.863h-105.851L1957.609,397.51L1957.609,397.51
	z M1708.782,254.519c-3.707,3.707-10.525,9.28-20.423,16.716c-14.863,11.142-27.857,19.801-39,25.991
	c-11.142,3.714-11.764,0-1.859-11.143c16.101-14.849,30.948-30.949,44.566-48.273c33.425-42.099,58.8-82.944,76.139-122.554
	h-116.991l-3.714-13.002h61.282V1.979l59.423,9.288c14.863,6.183,16.095,13.61,3.707,22.283l-14.855,5.574v63.13h14.855
	l18.57-27.851l38.993,37.146c7.435,7.429,6.197,12.988-3.707,16.717l-11.135,3.707c-4.959,8.651-10.526,17.332-16.724,25.998
	c-6.183,8.658-19.808,24.766-40.839,48.287v14.843c21.045,3.714,36.518,8.05,46.42,13.002c17.332,9.911,25.998,22.898,25.998,39
	c0,13.604-4.952,21.661-14.842,24.13c-14.863,3.714-24.151-0.609-27.858-12.995c-7.428-25.998-17.332-43.931-29.704-53.841V417.94
	c1.23,7.428-3.099,12.988-13.002,16.709c-11.143,4.952-20.431,6.805-27.858,5.574c-3.707-1.259-6.183-4.344-7.428-9.295V254.534
	h-0.015V254.519z"/>
<path fill="#FFFFFF" d="M2644.426,129.98c12.38,4.952,27.851,14.232,46.421,27.857c11.142,8.652,13.618,17.947,7.428,27.845
	c-3.7,4.959-10.519,6.189-20.416,3.714c-8.659-2.477-19.192-4.336-31.579-5.567c-12.38-1.245-35.887-2.476-70.557-3.721
	c0,12.387-1.231,26.627-3.707,42.721c-4.952,42.099-14.227,74.278-27.858,96.569c-12.38,19.794-32.194,40.224-59.423,61.276
	c-22.291,16.094-48.903,30.334-79.854,42.707c-9.91,3.714-11.135,1.859-3.707-5.567l22.277-14.855
	c18.57-12.381,35.901-28.467,52.002-48.274c12.387-14.856,22.906-32.81,31.565-53.855c12.387-28.473,18.577-68.711,18.577-120.706
	c-38.371,0-69.942,2.477-94.709,7.429c1.244,14.862,1.859,34.041,1.859,57.562c0,21.046-0.615,34.048-1.859,39
	c-12.381,16.087-27.235,14.856-44.567-3.707c-4.952-6.204-6.805-12.387-5.567-18.57c2.477-13.617,3.707-22.905,3.707-27.851v-38.993
	c-7.428,2.477-15.471,4.952-24.137,7.428c-4.951,1.238-9.904,2.477-14.855,3.707c-4.952,1.245-11.149,3.714-18.584,7.429
	c-3.707,2.476-8.659,1.866-14.856-1.86c-3.721-2.476-8.043-6.183-12.995-11.135c-9.91-8.659-16.101-15.479-18.57-20.431
	c-6.196-19.808-4.336-34.041,5.567-42.707c6.183,8.659,11.135,15.479,14.856,20.431c6.196,6.183,14.855,8.659,25.998,7.428
	c23.521-2.476,42.721-4.329,57.562-5.567c-1.231-44.566-3.091-69.948-5.567-76.146c-1.23-3.707-10.519-9.904-27.844-18.563
	c1.231-2.482,3.707-4.951,7.428-7.428c3.707-2.476,8.051-4.966,12.996-7.428c11.142-2.477,31.571,4.952,61.282,22.284
	c7.429,3.721,9.274,9.288,5.567,16.723l-7.436,14.856c0,25.99,0,43.321,0,51.987l94.709-7.428
	c-1.23-59.416-2.476-91.61-3.707-96.562c-1.238-4.945-4.959-9.281-11.135-12.995c-3.721-1.245-9.911-3.722-18.57-7.436
	c1.231-3.707,3.707-6.805,7.428-9.273c7.429-4.952,13.002-7.429,16.717-7.429c7.428,0,19.808,4.336,37.146,12.995
	c19.809,9.911,30.949,17.954,33.425,24.145c2.477,4.952-1.244,11.142-11.142,18.562v72.425c19.808,0,37.755-0.615,53.854-1.853
	l14.828-11.17L2644.426,129.98z"/>
<path fill="#FFFFFF" d="M2912.563,187.305c-18.57,2.476-32.796-11.149-42.707-40.854c-11.135-27.235-26.613-47.659-46.428-61.275
	c-8.659-6.184-16.702-11.136-24.137-14.863c-3.7-2.477-3.092-4.323,1.859-5.567c6.197-1.245,23.528,1.245,51.995,7.428
	c49.526,11.143,77.37,33.418,83.561,66.857C2941.665,168.736,2933.615,184.822,2912.563,187.305L2912.563,187.305L2912.563,187.305z
	 M2814.154,322.853c4.952,8.666,9.274,16.101,12.995,22.291c2.483,3.7,9.288,3.7,20.43,0c24.752-7.428,53.855-19.808,87.274-37.146
	c29.718-14.849,57.562-30.935,83.56-48.273c51.996-33.418,98.416-69.942,139.276-109.551c1.238-1.244,3.707-3.714,7.428-7.441
	c14.863-9.891,17.954-7.421,9.295,7.441c-32.194,47.043-73.67,93.457-124.427,139.27c-43.336,39.615-97.8,76.755-163.413,111.411
	c-6.197,12.387-11.142,19.199-14.856,20.43c-8.658,2.483-24.137-8.036-46.427-31.564c-9.903-9.911-16.087-17.339-18.569-22.298
	C2799.283,347.62,2801.767,332.765,2814.154,322.853L2814.154,322.853L2814.154,322.853z"/>
<path fill="#FFFFFF" d="M3556.863,92.722c-28.473,0-50.134,0.615-64.989,1.853c-37.133,2.483-81.699,8.666-133.701,18.577
	c-14.856,2.469-27.242,6.805-37.133,13.002c-9.903,6.183-21.045,3.707-33.425-7.435c-4.959-3.693-12.387-10.52-22.291-20.424
	c-8.659-8.666-13.61-17.332-14.855-25.998c-1.245-9.903,1.245-16.094,7.428-18.569c3.714,3.707,10.533,8.659,20.43,14.842
	c8.666,4.966,16.716,7.442,24.151,7.442c22.283-1.238,68.082-4.952,137.408-11.143l137.414-9.288l22.291-20.423
	c13.611,8.659,28.474,21.668,44.574,38.993c14.856,16.101,21.038,27.235,18.57,33.411c-1.23,3.721-6.805,6.196-16.702,7.435
	c-6.204,1.238-14.247,1.854-24.137,1.854c-47.05,24.752-92.231,45.805-135.562,63.13c-12.388,48.288-23.521,82.329-33.426,102.137
	c-17.339,34.663-40.23,64.375-68.711,89.142c-11.142,9.896-29.089,21.661-53.854,35.278c-14.856,7.429-17.954,6.197-9.288-3.714
	c16.094-13.61,28.473-26.62,37.132-38.993c21.046-28.473,36.524-58.178,46.428-89.127c3.707-13.618,8.043-32.194,12.995-55.716
	c6.19-33.425,7.428-51.995,3.707-55.709c-3.707-3.714-11.764-8.666-24.137-14.863c2.482-4.944,6.189-8.043,11.143-9.273
	c8.658-2.477,16.701-3.084,24.137-1.86c9.904,2.476,28.473,13.611,55.701,33.425c24.76-23.514,47.659-49.505,68.705-77.984l0,0
	H3556.863z"/>
<path fill="#FFFFFF" d="M3878.183,207.847c-35.901,23.521-67.473,41.475-94.709,53.848c-24.759,11.156-51.988,21.046-81.713,29.712
	c-18.57,4.952-15.478,0,9.295-14.855c9.904-4.952,27.844-16.095,53.854-33.426c58.179-38.362,114.502-89.141,168.974-152.271
	c4.952-6.19,11.142-13.604,18.569-22.291c6.197-7.421,9.295-12.988,9.295-16.702c0-6.19-8.05-13.002-24.15-20.43
	c3.714-4.952,9.904-8.051,18.577-9.281c11.148-1.231,22.284,2.476,33.418,11.142l16.723,13.002
	c7.421,6.184,14.849,14.227,22.284,24.138c11.135,11.135,7.428,20.43-11.143,27.851c-8.658,1.238-16.087,4.952-22.291,11.135
	c-23.521,21.053-47.029,41.476-70.557,61.29l11.143,5.567c8.658,7.428,8.043,14.849-1.86,22.284l-5.567,1.859
	c0,22.284,0.616,61.913,1.86,118.833v35.3c1.245,12.38,1.847,21.661,1.847,27.83c0,9.911-1.23,18.584-3.707,26.005
	c-3.707,12.387-12.995,17.947-27.844,16.709c-11.143-1.238-19.809-9.897-25.998-25.991c-2.482-6.204-3.091-14.24-1.847-24.137
	c1.23-4.952,2.482-11.765,3.707-20.431c2.476-13.61,3.714-41.475,3.714-83.56C3880.043,257.373,3879.406,236.328,3878.183,207.847
	L3878.183,207.847L3878.183,207.847z"/>
<path fill="#FFFFFF" d="M4551.873,233.97v38.992h-102.138V233.97H4551.873L4551.873,233.97z M4551.873,341.668v22.298
	c0,8.658-1.246,14.226-3.722,16.702c-3.707,2.482-10.526,3.091-20.416,1.859c-14.856-1.238-27.858-1.859-38.993-1.859
	c-4.952,3.706-4.952,6.189,0,7.435l33.425,12.988c6.196,2.482,9.288,6.189,9.288,11.148c0,9.904,0.616,16.087,1.859,18.57
	c2.483,3.707,6.799,4.952,12.996,3.707c13.61-2.477,25.998-8.05,37.139-16.716c8.652-6.184,13.611-12.988,14.85-20.431
	c1.244-3.707,1.859-12.38,1.859-25.998V252.533l3.721-1.86c9.904-6.183,11.135-12.987,3.701-20.423l-46.42-35.278l-16.717,25.998
	h-90.994l-52.002-22.291v228.41c0,7.428,2.482,11.135,7.435,11.135c3.714,0,12.388-1.238,25.998-3.707
	c9.903-2.477,14.856-6.812,14.856-12.988v-79.853L4551.873,341.668L4551.873,341.668z M4386.605,85.413
	c8.659-6.183,9.904-11.135,3.707-14.863l-42.707-25.997c-4.952,33.432-14.863,70.563-29.718,111.418
	c-4.944,17.339-0.616,19.191,13.002,5.566c19.808-24.752,37.146-49.505,51.987-74.271L4386.605,85.413z M4208.338,83.56
	c3.707,11.135,5.566,28.479,5.566,52.002c0,13.618,1.23,22.898,3.707,27.851c9.904,8.659,21.045,6.812,33.425-5.566
	c6.19-8.659,8.659-17.954,7.435-27.858c-2.482-21.046-11.142-37.755-25.998-50.134l-20.43-16.709
	c-11.135,1.23-12.38,8.036-3.707,20.416l0,0L4208.338,83.56z M4269.606,427.101c0,6.183,3.714,9.273,11.142,9.273
	c8.674,0,16.717-1.23,24.138-3.692c6.196-2.483,9.288-6.812,9.288-13.002V256.253c8.659,11.149,15.479,26.627,20.43,46.436
	c3.707,18.57,13.002,25.382,27.858,20.43c18.569-9.903,21.661-26.005,9.28-48.273c-9.91-14.856-29.088-24.76-57.568-29.719V204.28
	h66.863c14.842,0,16.703-5.574,5.567-16.723h243.259c8.659-2.477,9.904-7.429,3.707-14.843l-37.132-37.152l-29.718,39h-48.273
	v-40.867h92.834c8.666-2.469,9.91-7.421,3.721-14.842l-37.139-31.565l-25.998,33.411h-33.426v-40.86h103.99
	c8.66-2.476,9.897-7.428,3.707-14.849l-35.278-35.279l-31.565,37.14h-40.853V38.999l9.288-3.714
	c14.842-11.142,13.611-18.57-3.721-22.284l-57.562-5.581v59.424h-72.418l5.566,12.994h66.851v40.854h-70.571l5.567,12.988h64.99
	v40.859h-89.142l-22.283-20.43l-25.992,37.153h-14.862V38.991l7.435-5.574c7.436-9.918,6.812-16.716-1.859-20.423l-50.134-5.581
	v183.851h-76.125l5.567,12.994h65.011c-11.149,44.561-22.905,79.847-35.293,105.837c-9.89,19.813-21.038,38.993-33.411,57.568
	c-4.952,11.143-0.623,12.381,12.995,3.7c4.952-3.7,9.288-7.421,13.002-11.135c12.373-12.387,28.466-31.579,48.267-57.562v124.421
	L4269.606,427.101z M4551.873,285.972v42.7h-102.138v-42.7H4551.873z"/>
<path fill="#FFFFFF" d="M4974.764,46.546c9.904-4.959,11.135-9.903,3.707-14.855l-44.574-29.718
	c-9.904,42.098-16.702,68.096-20.43,77.991c-4.953-3.714-12.381-7.428-22.285-11.142c-16.094-3.707-19.185-0.623-9.295,9.281
	c7.436,7.421,12.388,19.178,14.863,35.278c2.477,14.863,8.043,22.899,16.709,24.138c6.189,3.714,12.387,0.623,18.577-9.274
	c8.659-9.904,5.567-23.521-9.295-40.853l42.714-37.146L4974.764,46.546L4974.764,46.546z M5125.166,150.529
	c7.429,7.428,12.388,15.478,14.856,24.137c-12.388,1.245-25.382,2.477-38.993,3.714
	C5109.695,169.721,5117.738,160.44,5125.166,150.529L5125.166,150.529z M5101.022,271.236
	c-7.435,13.618-16.702,28.466-27.858,44.567c-7.428-16.102-12.994-30.942-16.701-44.567H5101.022L5101.022,271.236z
	 M5013.748,271.236c7.436,33.418,17.332,61.899,29.719,85.42c-16.095,21.038-32.188,37.14-48.281,48.268
	c-14.855,11.155-29.718,20.43-44.566,27.851c-16.108,8.659-19.199,12.995-9.295,12.995l18.584-5.56
	c43.328-12.388,78.607-29.72,105.842-52.003c16.095,17.34,30.328,29.097,42.722,35.301c29.712,16.087,52.61,19.794,68.696,11.135
	c11.143-6.197,13.002-13.611,5.567-22.291l-7.435-9.288c-4.945-6.197-6.806-12.38-5.561-18.57l9.288-59.423
	c-1.237-3.707-3.714-4.329-7.429-1.859c-9.91,18.569-20.43,36.53-31.578,53.861c-4.953,3.707-11.765,3.091-20.431-1.859
	c-6.183-3.707-13.61-10.526-22.276-20.431c8.658-7.435,17.953-17.332,27.844-29.719l11.143-3.707
	c12.379-4.952,13.61-11.764,3.707-20.43l-35.279-29.72h70.557c7.436-2.476,8.064-7.428,1.86-14.849l-31.565-33.425l-24.144,35.278
	h-66.856c-3.707-22.276-6.184-44.56-7.429-66.843l16.716,29.704c4.952,8.659,10.525,8.659,16.702,0l3.722-5.567l1.853-1.859
	c2.476,4.945,4.336,12.38,5.554,22.291c1.252,11.135,6.812,16.716,16.723,16.716c12.38,0,18.57-6.805,18.57-20.43
	c0-9.897-8.66-18.57-25.998-25.991c14.855-6.197,29.088-12.387,42.707-18.584v3.721c1.237,7.428,2.482,12.995,3.721,16.702
	c2.477,4.959,5.566,8.05,9.273,9.288c13.619,4.959,22.291,0,25.998-14.856c3.722-14.862-3.09-29.089-20.43-42.707
	c-7.428-6.196-17.934-11.142-31.564-14.862l14.855-18.57l11.135-5.567c8.673-4.966,9.911-10.532,3.721-16.716l-37.131-27.857
	c-14.856,39.607-29.719,74.277-44.582,103.997c-11.135,1.23-22.276,1.847-33.41,1.847c-1.252-56.94-1.86-95.311-1.86-115.118
	c8.659,9.897,14.226,18.563,16.702,26.005c1.238,4.938,3.714,13.604,7.436,25.991c7.428,13.604,17.332,14.849,29.717,3.7
	c11.143-12.38,8.66-27.229-7.435-44.554c11.142-7.435,24.138-17.339,39-29.719l5.554-1.859c11.148-4.959,12.379-10.52,3.713-16.717
	l-40.846-25.998c-6.189,23.515-12.995,45.799-20.43,66.851c-12.388-4.952-23.521-8.05-33.426-9.288V37.251l9.289-5.566
	c8.658-8.659,8.049-14.856-1.86-18.57l-53.854-7.435c1.244,44.573,2.476,79.229,3.713,103.982l-38.992-29.704
	c-8.66,21.046-17.955,42.099-27.858,63.138c-8.659,18.562-17.332,36.51-25.998,53.848c-14.842,1.23-29.704,1.86-44.567,1.86
	l18.57,35.271c6.204,12.387,13.002,13.611,20.43,3.721l5.567-7.428c18.577-6.189,35.901-12.995,52.002-20.43l1.86,9.288
	c3.699,16.094,11.135,22.284,22.27,18.569c17.339-9.903,20.438-25.382,9.295-46.421c-7.436-12.387-19.809-22.905-37.132-31.571
	c9.903-11.136,19.794-22.291,29.704-33.418c6.197-1.238,11.148-3.092,14.863-5.574c2.476,47.043,6.183,92.841,11.135,137.408
	H4894.86c-9.897-13.611-27.235-23.521-51.987-29.704v-87.274h50.133c7.422-2.476,8.043-7.435,1.854-14.863l-27.852-35.278
	l-20.43,37.146h-3.707V40.964l12.995-7.435c11.142-11.135,9.903-18.563-3.707-22.284l-57.569-5.566v122.56h-63.129l11.142,13.002
	h50.134c-4.959,45.805-12.38,84.798-22.284,116.979c-9.911,30.948-21.046,58.813-33.433,83.56
	c-6.183,17.339-4.336,21.675,5.567,13.002c6.196-4.952,23.521-24.752,51.987-59.416v133.694c0,8.659,4.344,12.38,13.002,11.142
	c12.388-1.252,22.291-4.344,29.705-9.295c3.722-2.476,5.574-7.414,5.574-14.842V241.501c7.429,11.149,11.75,18.57,12.996,22.284
	c2.476,17.339,4.336,27.858,5.56,31.586c7.435,13.611,17.954,15.472,31.586,5.561c7.421-4.952,9.28-14.85,5.567-29.712h14.842
	c1.244,28.466-1.231,55.079-7.429,79.853c-6.19,29.712-19.199,57.556-38.993,83.561c-7.436,13.61-2.482,14.232,14.842,1.853
	c11.156-8.659,17.954-14.24,20.43-16.709c21.047-17.339,35.901-39.615,44.567-66.85c2.483-9.904,4.952-19.814,7.435-29.718
	c6.184,6.203,11.765,21.668,16.709,46.434c6.205,14.849,16.102,17.947,29.719,9.281c6.183-4.938,9.896-10.526,11.135-16.717
	c2.482-14.849-3.715-27.844-18.578-38.985c-9.903-6.19-21.66-10.533-35.278-12.995c1.245-16.102,2.476-29.089,3.722-38.993h52.058
	L5013.748,271.236z M4950.625,165.392c2.483,3.707,4.945,8.05,7.429,13.002c1.245,3.707,1.86,8.043,1.86,12.995
	c-14.856,1.237-26.627,2.476-35.287,3.707L4950.625,165.392z"/>
</svg>
