<?xml version="1.0" encoding="utf-8"?>
<!-- Generated by IcoMoon.io -->
<!DOCTYPE svg PUBLIC "-//W3C//DTD SVG 1.1//EN" "http://www.w3.org/Graphics/SVG/1.1/DTD/svg11.dtd">
<svg version="1.1" xmlns="http://www.w3.org/2000/svg" xmlns:xlink="http://www.w3.org/1999/xlink" width="5187" height="448" viewBox="0 0 5187 448">
<g id="icomoon-ignore">
</g>
<path fill="#000" d="M258.709 311.83c-32.194 32.194-62.514 58.192-90.988 77.992-3.721 2.483-10.526 6.812-20.43 12.995-24.759 14.863-27.858 12.387-9.288-7.428 44.574-38.37 81.713-94.702 111.425-168.973h-94.709l-7.428-12.995h111.418v-85.427h-39c-6.19 11.149-12.387 21.668-18.57 31.572-6.183 11.149-13.618 22.291-22.284 33.418-2.476 3.714-4.952 7.428-7.428 11.142-8.666 11.142-11.764 8.666-9.288-7.435 16.094-45.805 27.235-99.646 33.425-161.545l50.134 20.416c8.659 7.435 9.288 14.24 1.86 20.444l-7.428 3.714c-4.952 12.387-9.904 24.137-14.856 35.286h33.425v-109.557l59.423 7.428c12.38 3.7 13.611 11.142 3.721 22.284l-11.142 7.421v72.432h44.567l29.719-38.993 38.993 37.139c6.197 7.428 4.959 12.38-3.707 14.856h-109.578v85.42h61.283l31.565-42.707 39 38.979c7.428 8.666 6.183 14.24-3.721 16.723h-122.553c6.183 11.142 11.764 21.038 16.709 29.712 11.149 17.339 25.998 34.034 44.574 50.134 22.284 19.808 48.274 37.146 77.992 52.002-21.046 9.897-37.139 25.382-48.281 46.421-24.759-23.521-43.329-44.567-55.702-63.13-14.856-22.291-28.473-49.519-40.853-81.706v159.706c0 7.421-3.707 12.373-11.135 14.842-9.904 3.721-19.192 5.574-27.858 5.574-8.659 0-12.995-5.574-12.995-16.716v-111.425h-0.014zM60.010 291.413c-13.625 19.801-27.235 37.139-40.853 51.995-17.339 17.332-22.906 17.94-16.716 1.853 2.476-3.707 4.337-6.805 5.567-9.281 27.228-56.947 44.56-122.559 51.995-196.838h-50.134l-7.428-13.002h57.562v-118.839l61.283 5.581c12.38 3.693 13.611 10.512 3.707 20.423l-12.995 7.428v85.42h7.428l18.57-37.146 33.425 35.279c6.19 7.421 4.952 12.38-3.707 14.863h-55.702v76.132c30.949 7.421 50.75 19.801 59.423 37.146 9.911 22.284 4.952 37.139-14.856 44.56-14.863 3.707-23.521-2.476-25.998-18.57-2.476-16.087-4.336-25.382-5.567-27.844-2.476-7.428-6.812-14.233-12.995-20.43v189.424c0 7.421-8.050 12.988-24.151 16.702-18.57 3.707-27.844 0-27.844-11.142v-133.694h-0.014z"></path>
<path fill="#000" d="M854.783 35.279c12.38 0 24.137 1.231 35.272 3.714 17.339 4.952 29.103 13.002 35.286 24.137 6.19 9.904 7.428 19.185 3.714 27.858-9.904 17.332-24.137 19.801-42.707 7.428-3.721-4.959-6.812-13.002-9.288-24.137s-8.050-19.814-16.716-26.005c-12.373-6.183-14.226-10.519-5.56-12.995v0zM839.927 139.275c2.476 34.656 8.050 67.473 16.716 98.416 13.611 48.281 33.425 83.56 59.423 105.85 17.332 14.842 29.103 17.94 35.286 9.274 4.952-6.183 11.764-17.94 20.43-35.272l12.995-26.005c4.952-6.183 7.428-4.329 7.428 5.567-6.183 30.956-9.288 51.387-9.288 61.276-1.231 9.904-1.231 16.716 0 20.43 1.245 2.483 6.19 11.149 14.863 26.005 6.183 9.904 6.812 18.57 1.86 25.998-6.19 9.904-17.954 12.38-35.279 7.428-14.856-3.707-29.089-9.897-42.707-18.57-54.478-33.418-90.988-81.699-109.564-144.829-11.149-38.377-19.192-83.56-24.151-135.562h-222.828l-3.714-13.002h226.549l-1.86-48.274-3.714-70.571 59.423 5.581c18.57 6.183 21.046 13.002 7.428 20.423l-11.135 5.574c-1.231 16.101-0.616 45.189 1.86 87.274h81.706l29.718-42.714 46.42 38.986c8.659 8.673 7.428 14.247-3.714 16.73l-154.152-0.014zM706.226 345.388c38.377-6.197 71.173-11.757 98.416-16.716 11.149-2.476 16.716-1.853 16.716 1.86 0 4.952-14.24 13.002-42.707 24.137l-40.853 16.709c-37.146 14.863-59.423 23.528-66.85 25.998-9.904 2.483-25.368 7.435-46.42 14.863l-5.567 9.288c-9.904 17.332-19.808 17.94-29.712 1.847l-33.425-53.841c39.608-4.959 71.173-9.295 94.709-13.002v-122.552h-74.278l-3.714-13.002h141.122l31.565-42.707 44.574 38.993c8.659 8.659 7.428 14.233-3.721 16.716h-79.846v111.432h-0.007z"></path>
<path fill="#000" d="M1382.028 148.55l42.714 35.286c8.666 7.428 7.435 12.38-3.707 14.842h-204.266l-3.721-13.002h137.415l31.565-37.125zM1133.195 375.092c29.718 1.245 58.807 1.86 87.281 1.86 12.38-25.998 23.521-59.423 33.425-100.276h-128.134l-5.574-12.988h328.679l31.579-40.853 50.134 37.146c9.904 8.659 8.666 14.226-3.707 16.702h-211.694c11.142 8.666 12.38 15.485 3.707 20.43l-14.856 5.574c-21.045 28.466-41.475 53.226-61.283 74.271 25.998 0 60.038-0.616 102.137-1.86 48.281-1.245 73.663-1.86 76.139-1.86-11.135-17.332-24.137-32.187-38.993-44.567-19.808-12.387-22.277-19.178-7.428-20.43 29.705 9.911 53.226 19.808 70.557 29.712 27.235 16.101 45.182 35.894 53.855 59.416 3.714 9.897 3.714 19.814 0 29.712-6.183 16.094-14.856 22.885-25.998 20.423-12.38 0-21.045-6.805-25.998-20.423-7.428-21.046-12.995-34.041-16.709-38.986-85.42 16.087-162.79 27.83-232.117 35.272l-7.428 11.149c-8.659 13.604-17.332 12.988-25.998-1.853l-31.579-57.569zM1348.609 40.846c24.759 39.615 63.13 73.656 115.125 102.137 12.38 7.428 27.235 14.24 44.574 20.43 16.094 4.952 30.949 10.519 44.56 16.702-9.904 6.197-18.57 12.387-25.998 18.57-6.19 4.952-13.611 15.485-22.284 31.579-17.332-9.897-34.041-21.060-50.134-33.418-28.473-22.284-54.471-48.288-77.992-77.992-14.856-19.808-28.473-43.952-40.846-72.425-50.764 79.223-114.516 138.646-191.264 178.269-7.428 4.952-16.709 8.666-27.844 11.142-6.197-2.476-4.336-7.428 5.567-14.863 12.38-8.652 24.759-18.57 37.146-29.704 23.521-22.291 44.56-45.812 63.13-70.564 24.759-34.663 47.043-74.894 66.85-120.699l63.136 18.556c12.38 6.197 14.24 11.764 5.567 16.73l-9.295 5.553z"></path>
<path fill="#000" d="M1957.609 397.509h51.995l33.425-44.567 44.574 40.846c8.659 8.652 7.428 14.24-3.721 16.709h-304.535l-3.707-12.988h129.98v-211.687h-96.555l-3.721-13.002h100.276v-165.273l61.283 7.428c9.911 3.707 10.526 10.512 1.847 20.423l-11.135 7.428v129.987h39l29.705-39 40.853 37.146c7.428 7.428 6.183 12.38-3.707 14.863h-105.851l-0.007 211.687zM1708.783 254.519c-3.707 3.707-10.526 9.281-20.423 16.716-14.863 11.142-27.858 19.801-39 25.991-11.142 3.714-11.764 0-1.86-11.142 16.101-14.849 30.949-30.949 44.567-48.274 33.425-42.098 58.8-82.944 76.139-122.553h-116.992l-3.714-13.002h61.283v-100.276l59.423 9.288c14.863 6.183 16.094 13.611 3.707 22.284l-14.856 5.574v63.13h14.856l18.57-27.851 38.993 37.146c7.435 7.428 6.197 12.988-3.707 16.716l-11.135 3.707c-4.959 8.652-10.526 17.332-16.723 25.998-6.183 8.659-19.808 24.766-40.839 48.288v14.842c21.045 3.714 36.517 8.050 46.42 13.002 17.332 9.911 25.998 22.899 25.998 39 0 13.604-4.952 21.661-14.842 24.13-14.863 3.714-24.151-0.609-27.858-12.995-7.428-25.998-17.332-43.931-29.705-53.841v187.543c1.231 7.428-3.098 12.988-13.002 16.709-11.142 4.952-20.43 6.805-27.858 5.574-3.707-1.259-6.183-4.344-7.428-9.295v-176.394h-0.014z"></path>
<path fill="#000" d="M2644.426 129.98c12.38 4.952 27.851 14.233 46.421 27.858 11.142 8.652 13.618 17.947 7.428 27.844-3.7 4.959-10.519 6.19-20.416 3.714-8.659-2.476-19.192-4.336-31.579-5.567-12.38-1.245-35.887-2.476-70.557-3.721 0 12.387-1.231 26.627-3.707 42.721-4.952 42.098-14.226 74.278-27.858 96.569-12.38 19.794-32.194 40.224-59.423 61.276-22.291 16.094-48.903 30.334-79.853 42.707-9.911 3.714-11.135 1.86-3.707-5.567l22.277-14.856c18.57-12.38 35.901-28.466 52.002-48.274 12.387-14.856 22.906-32.81 31.565-53.855 12.387-28.473 18.577-68.711 18.577-120.706-38.37 0-69.942 2.476-94.709 7.428 1.245 14.863 1.86 34.041 1.86 57.562 0 21.046-0.616 34.048-1.86 39-12.38 16.087-27.235 14.856-44.567-3.707-4.952-6.204-6.805-12.387-5.567-18.57 2.476-13.618 3.707-22.906 3.707-27.851v-38.993c-7.428 2.476-15.471 4.952-24.137 7.428-4.952 1.238-9.904 2.476-14.856 3.707-4.952 1.245-11.149 3.714-18.584 7.428-3.707 2.476-8.659 1.867-14.856-1.86-3.721-2.476-8.043-6.183-12.995-11.135-9.911-8.659-16.101-15.478-18.57-20.43-6.197-19.808-4.336-34.041 5.567-42.707 6.183 8.659 11.135 15.478 14.856 20.43 6.197 6.183 14.856 8.659 25.998 7.428 23.521-2.476 42.721-4.329 57.562-5.567-1.231-44.567-3.091-69.949-5.567-76.146-1.231-3.707-10.519-9.904-27.844-18.563 1.231-2.483 3.707-4.952 7.428-7.428 3.707-2.476 8.050-4.966 12.995-7.428 11.142-2.476 31.572 4.952 61.283 22.284 7.428 3.721 9.274 9.288 5.567 16.723l-7.435 14.856c0 25.991 0 43.322 0 51.988l94.709-7.428c-1.231-59.416-2.476-91.61-3.707-96.562-1.238-4.945-4.959-9.281-11.135-12.995-3.721-1.245-9.911-3.721-18.57-7.435 1.231-3.707 3.707-6.805 7.428-9.274 7.428-4.952 13.002-7.428 16.716-7.428 7.428 0 19.808 4.336 37.146 12.995 19.808 9.911 30.949 17.954 33.425 24.144 2.476 4.952-1.245 11.142-11.142 18.563v72.425c19.808 0 37.755-0.616 53.855-1.853l14.828-11.17z"></path>
<path fill="#000" d="M2912.563 187.305c-18.57 2.476-32.796-11.149-42.707-40.853-11.135-27.235-26.613-47.659-46.428-61.276-8.659-6.183-16.702-11.135-24.137-14.863-3.7-2.476-3.091-4.323 1.86-5.567 6.197-1.245 23.528 1.245 51.995 7.428 49.526 11.142 77.37 33.418 83.56 66.857 4.959 29.705-3.091 45.791-24.144 48.274v0zM2814.154 322.853c4.952 8.666 9.274 16.101 12.995 22.291 2.483 3.7 9.288 3.7 20.43 0 24.752-7.428 53.855-19.808 87.274-37.146 29.718-14.849 57.562-30.935 83.56-48.274 51.995-33.418 98.416-69.942 139.276-109.55 1.238-1.245 3.707-3.714 7.428-7.442 14.863-9.89 17.954-7.421 9.295 7.442-32.194 47.043-73.67 93.457-124.427 139.269-43.336 39.615-97.8 76.755-163.413 111.411-6.197 12.387-11.142 19.199-14.856 20.43-8.659 2.483-24.137-8.036-46.427-31.565-9.904-9.911-16.087-17.339-18.57-22.298-7.435-19.801-4.952-34.656 7.435-44.567v0z"></path>
<path fill="#000" d="M3556.863 92.722c-28.473 0-50.134 0.616-64.99 1.853-37.132 2.483-81.699 8.666-133.701 18.577-14.856 2.469-27.242 6.805-37.132 13.002-9.904 6.183-21.046 3.707-33.425-7.435-4.959-3.693-12.387-10.519-22.291-20.423-8.659-8.666-13.611-17.332-14.856-25.998-1.245-9.904 1.245-16.094 7.428-18.57 3.714 3.707 10.533 8.659 20.43 14.842 8.666 4.966 16.716 7.442 24.151 7.442 22.284-1.238 68.082-4.952 137.408-11.142l137.415-9.288 22.291-20.423c13.611 8.659 28.473 21.668 44.574 38.993 14.856 16.101 21.038 27.235 18.57 33.411-1.231 3.721-6.805 6.197-16.702 7.435-6.204 1.238-14.247 1.853-24.137 1.853-47.050 24.752-92.232 45.805-135.562 63.13-12.387 48.288-23.521 82.329-33.425 102.137-17.339 34.663-40.231 64.375-68.711 89.141-11.142 9.897-29.089 21.661-53.855 35.279-14.856 7.428-17.954 6.197-9.288-3.714 16.094-13.611 28.473-26.62 37.132-38.993 21.046-28.473 36.524-58.178 46.428-89.127 3.707-13.618 8.043-32.194 12.995-55.716 6.19-33.425 7.428-51.995 3.707-55.709-3.707-3.714-11.764-8.666-24.137-14.863 2.483-4.945 6.19-8.043 11.142-9.274 8.659-2.476 16.702-3.084 24.137-1.86 9.904 2.476 28.473 13.611 55.702 33.425 24.759-23.514 47.659-49.505 68.704-77.985v0z"></path>
<path fill="#000" d="M3878.183 207.847c-35.901 23.521-67.473 41.475-94.709 53.848-24.759 11.156-51.988 21.046-81.713 29.712-18.57 4.952-15.478 0 9.295-14.856 9.904-4.952 27.844-16.094 53.855-33.425 58.178-38.363 114.502-89.141 168.973-152.271 4.952-6.19 11.142-13.604 18.57-22.291 6.197-7.421 9.295-12.988 9.295-16.702 0-6.19-8.050-13.002-24.151-20.43 3.714-4.952 9.904-8.050 18.577-9.281 11.149-1.231 22.284 2.476 33.418 11.142l16.723 13.002c7.421 6.183 14.849 14.226 22.284 24.137 11.135 11.135 7.428 20.43-11.142 27.851-8.659 1.238-16.087 4.952-22.291 11.135-23.521 21.052-47.029 41.475-70.557 61.29l11.142 5.567c8.659 7.428 8.043 14.849-1.86 22.284l-5.567 1.86c0 22.284 0.616 61.913 1.86 118.832v35.3c1.245 12.38 1.847 21.661 1.847 27.83 0 9.911-1.231 18.584-3.707 26.005-3.707 12.387-12.995 17.947-27.844 16.709-11.142-1.238-19.808-9.897-25.998-25.991-2.483-6.204-3.091-14.24-1.847-24.137 1.231-4.952 2.483-11.764 3.707-20.43 2.476-13.611 3.714-41.475 3.714-83.56-0.014-13.604-0.651-34.649-1.874-63.13v0z"></path>
<path fill="#000" d="M4551.873 233.97v38.993h-102.137v-38.993h102.137zM4551.873 341.667v22.298c0 8.659-1.245 14.226-3.721 16.702-3.707 2.483-10.526 3.091-20.416 1.86-14.856-1.238-27.858-1.86-38.993-1.86-4.952 3.707-4.952 6.19 0 7.435l33.425 12.988c6.197 2.483 9.288 6.19 9.288 11.149 0 9.904 0.616 16.087 1.86 18.57 2.483 3.707 6.798 4.952 12.995 3.707 13.611-2.476 25.998-8.050 37.139-16.716 8.652-6.183 13.611-12.988 14.849-20.43 1.245-3.707 1.86-12.38 1.86-25.998v-118.839l3.721-1.86c9.904-6.183 11.135-12.988 3.7-20.423l-46.42-35.279-16.716 25.998h-90.995l-52.002-22.291v228.41c0 7.428 2.483 11.135 7.435 11.135 3.714 0 12.387-1.238 25.998-3.707 9.904-2.476 14.856-6.812 14.856-12.988v-79.853l102.137-0.007zM4386.606 85.413c8.659-6.183 9.904-11.135 3.707-14.863l-42.707-25.998c-4.952 33.432-14.863 70.564-29.718 111.418-4.945 17.339-0.616 19.192 13.002 5.567 19.808-24.752 37.146-49.505 51.988-74.271l3.728-1.853zM4208.338 83.56c3.707 11.135 5.567 28.48 5.567 52.002 0 13.618 1.231 22.899 3.707 27.851 9.904 8.659 21.045 6.812 33.425-5.567 6.19-8.659 8.659-17.954 7.435-27.858-2.483-21.046-11.142-37.755-25.998-50.134l-20.43-16.709c-11.135 1.231-12.38 8.036-3.707 20.416v0zM4269.607 427.101c0 6.183 3.714 9.274 11.142 9.274 8.673 0 16.716-1.231 24.137-3.693 6.197-2.483 9.288-6.812 9.288-13.002v-163.427c8.659 11.149 15.478 26.627 20.43 46.435 3.707 18.57 13.002 25.382 27.858 20.43 18.57-9.904 21.661-26.005 9.281-48.274-9.911-14.856-29.089-24.759-57.569-29.718v-40.846h66.864c14.842 0 16.702-5.574 5.567-16.723h243.259c8.659-2.476 9.904-7.428 3.707-14.842l-37.132-37.153-29.718 39h-48.274v-40.867h92.834c8.666-2.469 9.911-7.421 3.721-14.842l-37.139-31.565-25.998 33.411h-33.425v-40.86h103.99c8.659-2.476 9.897-7.428 3.707-14.849l-35.279-35.279-31.565 37.139h-40.853v-27.851l9.288-3.714c14.842-11.142 13.611-18.57-3.721-22.284l-57.562-5.581v59.423h-72.418l5.567 12.995h66.85v40.853h-70.571l5.567 12.988h64.99v40.86h-89.141l-22.284-20.43-25.991 37.153h-14.863v-152.271l7.435-5.574c7.435-9.918 6.812-16.716-1.86-20.423l-50.134-5.581v183.85h-76.125l5.567 12.995h65.011c-11.149 44.56-22.906 79.846-35.293 105.836-9.89 19.814-21.038 38.993-33.411 57.569-4.952 11.142-0.623 12.38 12.995 3.7 4.952-3.7 9.288-7.421 13.002-11.135 12.373-12.387 28.466-31.579 48.267-57.562v124.42zM4551.873 285.972v42.7h-102.137v-42.7h102.137z"></path>
<path fill="#000" d="M4974.764 46.546c9.904-4.959 11.135-9.904 3.707-14.856l-44.574-29.718c-9.904 42.098-16.702 68.096-20.43 77.992-4.952-3.714-12.38-7.428-22.284-11.142-16.094-3.707-19.185-0.623-9.295 9.281 7.435 7.421 12.387 19.178 14.863 35.279 2.476 14.863 8.043 22.899 16.709 24.137 6.19 3.714 12.387 0.623 18.577-9.274 8.659-9.904 5.567-23.521-9.295-40.853l42.714-37.146 9.309-3.7zM5125.167 150.529c7.428 7.428 12.387 15.478 14.856 24.137-12.387 1.245-25.382 2.476-38.993 3.714 8.666-8.659 16.709-17.94 24.137-27.851v0zM5101.023 271.236c-7.435 13.618-16.702 28.466-27.858 44.567-7.428-16.101-12.995-30.942-16.702-44.567h44.56zM5013.749 271.236c7.435 33.418 17.332 61.899 29.718 85.42-16.094 21.038-32.187 37.139-48.281 48.267-14.856 11.156-29.718 20.43-44.567 27.851-16.108 8.659-19.199 12.995-9.295 12.995l18.584-5.56c43.329-12.387 78.608-29.719 105.843-52.002 16.094 17.339 30.327 29.096 42.721 35.3 29.712 16.087 52.61 19.794 68.697 11.135 11.142-6.197 13.002-13.611 5.567-22.291l-7.435-9.288c-4.945-6.197-6.805-12.38-5.56-18.57l9.288-59.423c-1.238-3.707-3.714-4.329-7.428-1.86-9.911 18.57-20.43 36.531-31.579 53.862-4.952 3.707-11.764 3.091-20.43-1.86-6.183-3.707-13.611-10.526-22.277-20.43 8.659-7.435 17.954-17.332 27.844-29.719l11.142-3.707c12.38-4.952 13.611-11.764 3.707-20.43l-35.279-29.719h70.557c7.435-2.476 8.064-7.428 1.86-14.849l-31.565-33.425-24.144 35.279h-66.857c-3.707-22.277-6.183-44.56-7.428-66.843l16.716 29.704c4.952 8.659 10.526 8.659 16.702 0l3.721-5.567 1.853-1.86c2.476 4.945 4.336 12.38 5.553 22.291 1.252 11.135 6.812 16.716 16.723 16.716 12.38 0 18.57-6.805 18.57-20.43 0-9.897-8.659-18.57-25.998-25.991 14.856-6.197 29.089-12.387 42.707-18.584v3.721c1.238 7.428 2.483 12.995 3.721 16.702 2.476 4.959 5.567 8.050 9.274 9.288 13.618 4.959 22.291 0 25.998-14.856 3.721-14.863-3.091-29.089-20.43-42.707-7.428-6.197-17.933-11.142-31.565-14.863l14.856-18.57 11.135-5.567c8.673-4.966 9.911-10.533 3.721-16.716l-37.132-27.858c-14.856 39.608-29.718 74.278-44.581 103.997-11.135 1.231-22.277 1.847-33.411 1.847-1.252-56.94-1.86-95.31-1.86-115.118 8.659 9.897 14.226 18.563 16.702 26.005 1.238 4.938 3.714 13.604 7.435 25.991 7.428 13.604 17.332 14.849 29.718 3.7 11.142-12.38 8.659-27.228-7.435-44.553 11.142-7.435 24.137-17.339 39-29.719l5.553-1.86c11.149-4.959 12.38-10.519 3.714-16.716l-40.846-25.998c-6.19 23.514-12.995 45.798-20.43 66.85-12.387-4.952-23.521-8.050-33.425-9.288v-24.109l9.288-5.567c8.659-8.659 8.050-14.856-1.86-18.57l-53.855-7.435c1.245 44.574 2.476 79.23 3.714 103.983l-38.993-29.704c-8.659 21.046-17.954 42.098-27.858 63.137-8.659 18.563-17.332 36.51-25.998 53.848-14.842 1.231-29.704 1.86-44.567 1.86l18.57 35.272c6.204 12.387 13.002 13.611 20.43 3.721l5.567-7.428c18.577-6.19 35.901-12.995 52.002-20.43l1.86 9.288c3.7 16.094 11.135 22.284 22.27 18.57 17.339-9.904 20.437-25.382 9.295-46.421-7.435-12.387-19.808-22.906-37.132-31.572 9.904-11.135 19.794-22.291 29.704-33.418 6.197-1.238 11.149-3.091 14.863-5.574 2.476 47.043 6.183 92.841 11.135 137.408h-116.985c-9.897-13.611-27.235-23.521-51.988-29.704v-87.274h50.134c7.421-2.476 8.043-7.435 1.853-14.863l-27.851-35.279-20.43 37.146h-3.707v-87.281l12.995-7.435c11.142-11.135 9.904-18.563-3.707-22.284l-57.569-5.567v122.56h-63.13l11.142 13.002h50.134c-4.959 45.805-12.38 84.798-22.284 116.978-9.911 30.949-21.046 58.814-33.432 83.56-6.183 17.339-4.337 21.675 5.567 13.002 6.197-4.952 23.521-24.752 51.988-59.416v133.694c0 8.659 4.343 12.38 13.002 11.142 12.387-1.252 22.291-4.344 29.705-9.295 3.721-2.476 5.574-7.414 5.574-14.842v-174.562c7.428 11.149 11.75 18.57 12.995 22.284 2.476 17.339 4.337 27.858 5.56 31.586 7.435 13.611 17.954 15.471 31.586 5.56 7.421-4.952 9.281-14.849 5.567-29.712h14.842c1.245 28.466-1.231 55.079-7.428 79.853-6.19 29.712-19.199 57.555-38.993 83.56-7.435 13.611-2.483 14.233 14.842 1.853 11.156-8.659 17.954-14.24 20.43-16.709 21.046-17.339 35.901-39.615 44.567-66.85 2.483-9.904 4.952-19.814 7.435-29.718 6.183 6.204 11.764 21.668 16.709 46.434 6.204 14.849 16.101 17.947 29.718 9.281 6.183-4.938 9.897-10.526 11.135-16.716 2.483-14.849-3.714-27.844-18.577-38.986-9.904-6.19-21.661-10.533-35.279-12.995 1.245-16.101 2.476-29.089 3.721-38.993h52.058zM4950.626 165.392c2.483 3.707 4.945 8.050 7.428 13.002 1.245 3.707 1.86 8.043 1.86 12.995-14.856 1.238-26.627 2.476-35.286 3.707l25.998-29.704z"></path>
</svg>
