<?xml version="1.0" encoding="utf-8"?>
<!-- Generator: Adobe Illustrator 16.0.0, SVG Export Plug-In . SVG Version: 6.00 Build 0)  -->
<!DOCTYPE svg PUBLIC "-//W3C//DTD SVG 1.1 Tiny//EN" "http://www.w3.org/Graphics/SVG/1.1/DTD/svg11-tiny.dtd">
<svg version="1.1" baseProfile="tiny" id="レイヤー_1"
	 xmlns="http://www.w3.org/2000/svg" xmlns:xlink="http://www.w3.org/1999/xlink" x="0px" y="0px" width="2497px" height="480px"
	 viewBox="0 -16.5 2497 480" xml:space="preserve">
<g id="icomoon-ignore">
</g>
<path fill="#FFFFFF" d="M0,0h459.776v72.757H0V0z"/>
<path fill="#FFFFFF" d="M0,375.243h459.776v72.762H0V375.243L0,375.243z"/>
<path fill="#FFFFFF" d="M0,187.624h459.776v72.757H0V187.624L0,187.624z"/>
<path fill="#FFFFFF" d="M625.16,430.639v-82.636c20.834,8.334,43.058,15.051,66.668,20.135c23.611,5.101,46.529,7.639,68.751,7.639
	c34.724,0,59.141-3.228,73.266-9.723c14.116-6.474,21.181-19.9,21.181-40.278c0-13.418-3.245-24.066-9.723-31.945
	c-6.49-7.866-17.134-14.69-31.945-20.485c-14.819-5.779-37.968-13.075-69.446-21.875c-46.768-12.955-79.635-29.167-98.612-48.612
	c-18.99-19.445-28.474-46.289-28.474-80.558c0-41.199,15.038-72.918,45.141-95.141c30.089-22.223,73.84-33.334,131.253-33.334
	c25.922,0,50.575,1.736,73.96,5.208c23.372,3.472,42.469,7.986,57.293,13.542v82.641C886.504,80.873,846.92,73.689,805.72,73.689
	c-31.49,0-54.982,3.472-70.487,10.417c-15.518,6.943-23.264,19.684-23.264,38.194c0,11.578,2.885,20.835,8.681,27.778
	c5.783,6.944,15.505,13.087,29.167,18.403c13.65,5.328,34.83,11.698,63.543,19.098c51.845,13.89,87.729,31.838,107.641,53.82
	c19.9,21.995,29.862,50.121,29.862,84.377c0,40.278-15.278,71.88-45.834,94.794c-30.556,22.921-75.696,34.376-135.419,34.376
	s-107.881-8.094-144.447-24.306L625.16,430.639z"/>
<path fill="#FFFFFF" d="M1045.304,421.615c-21.769-22.223-32.641-54.395-32.641-96.534v-206.25h93.752v204.172
	c0,21.768,5.208,37.739,15.625,47.918c10.417,10.188,26.497,15.277,48.27,15.277c15.729,0,30.436-3.125,44.098-9.375
	c13.646-6.254,25.571-14.464,35.756-24.652V118.832h93.761v329.174h-86.808l-3.472-31.256
	c-31.949,25.473-70.612,38.195-115.979,38.195C1097.842,454.945,1067.059,443.839,1045.304,421.615L1045.304,421.615z"/>
<path fill="#FFFFFF" d="M1423.776,118.831h86.807l3.473,31.251c14.811-11.11,32.4-20.247,52.779-27.431
	c20.371-7.172,41.428-10.764,63.195-10.764c43.058,0,74.659,10.069,94.797,30.209c20.136,20.139,30.209,51.736,30.209,94.794
	v211.115h-93.752V241.747c0-22.677-4.634-38.538-13.889-47.565c-9.268-9.028-25.931-13.542-50.001-13.542
	c-14.355,0-28.713,3.125-43.057,9.375c-14.356,6.25-26.629,14.476-36.807,24.652v233.339h-93.752V118.832L1423.776,118.831z"/>
<path fill="#FFFFFF" d="M2057.804,0.773h102.78l170.138,447.231h-97.224l-42.362-107.642h-164.583l-41.668,107.642h-97.919
	L2057.804,0.773L2057.804,0.773z M2177.25,268.139L2108.5,88.274l-68.058,179.865H2177.25z"/>
<path fill="#FFFFFF" d="M2403.64,134.799h93.756V448h-93.752L2403.64,134.799L2403.64,134.799z M2403.644,0.773h94.446v73.612
	h-94.446V0.773z"/>
</svg>
