<?xml version="1.0" encoding="utf-8"?>
<!-- Generator: Adobe Illustrator 16.0.0, SVG Export Plug-In . SVG Version: 6.00 Build 0)  -->
<!DOCTYPE svg PUBLIC "-//W3C//DTD SVG 1.1//EN" "http://www.w3.org/Graphics/SVG/1.1/DTD/svg11.dtd">
<svg version="1.1" id="レイヤー_1" xmlns="http://www.w3.org/2000/svg" xmlns:xlink="http://www.w3.org/1999/xlink" x="0px"
	 y="0px" width="681.074px" height="158.277px" viewBox="0 0 681.074 158.277" enable-background="new 0 0 681.074 158.277"
	 xml:space="preserve">
<g>
	<path d="M204.987,93.551c-3.618,3.618-7.026,6.54-10.227,8.766c-0.417,0.278-1.183,0.766-2.295,1.461
		c-2.783,1.67-3.131,1.392-1.044-0.835c5.009-4.312,9.183-10.644,12.522-18.991H193.3l-0.834-1.461h12.522V72.89h-4.383
		c-0.696,1.253-1.392,2.436-2.087,3.548c-0.696,1.253-1.531,2.505-2.504,3.757c-0.278,0.417-0.557,0.835-0.835,1.252
		c-0.974,1.253-1.322,0.975-1.043-0.835c1.809-5.147,3.061-11.199,3.756-18.156l5.635,2.295c0.974,0.836,1.043,1.601,0.208,2.297
		l-0.835,0.417c-0.556,1.392-1.113,2.713-1.669,3.966h3.757V59.116l6.678,0.835c1.391,0.416,1.53,1.252,0.417,2.504l-1.252,0.834
		v8.141h5.009l3.339-4.383l4.383,4.174c0.696,0.834,0.557,1.391-0.417,1.669h-12.313v9.601h6.887l3.548-4.8l4.383,4.382
		c0.835,0.975,0.696,1.601-0.417,1.879h-13.774c0.695,1.252,1.322,2.365,1.878,3.339c1.252,1.948,2.922,3.826,5.009,5.635
		c2.504,2.227,5.426,4.175,8.766,5.844c-2.365,1.113-4.174,2.853-5.426,5.218c-2.783-2.644-4.87-5.009-6.261-7.096
		c-1.67-2.505-3.2-5.565-4.592-9.183v17.948c0,0.834-0.417,1.391-1.252,1.669c-1.113,0.418-2.157,0.626-3.131,0.626
		c-0.974,0-1.46-0.626-1.46-1.878V93.551z M182.656,91.256c-1.531,2.226-3.061,4.174-4.591,5.844
		c-1.948,1.947-2.574,2.017-1.878,0.208c0.278-0.417,0.487-0.765,0.626-1.043c3.061-6.4,5.009-13.774,5.844-22.122h-5.635
		l-0.835-1.461h6.47V59.324l6.887,0.627c1.391,0.416,1.53,1.182,0.417,2.295l-1.46,0.835v9.601h0.834l2.087-4.174l3.757,3.965
		c0.696,0.834,0.557,1.391-0.417,1.67H188.5v8.557c3.478,0.834,5.704,2.226,6.678,4.174c1.113,2.504,0.557,4.174-1.669,5.009
		c-1.67,0.417-2.644-0.278-2.922-2.087s-0.487-2.853-0.626-3.131c-0.278-0.835-0.765-1.6-1.46-2.296v21.288
		c0,0.834-0.905,1.461-2.713,1.878c-2.087,0.417-3.13,0-3.13-1.252V91.256"/>
	<path d="M264.119,62.469c1.392,0,2.713,0.139,3.965,0.418c1.948,0.557,3.27,1.461,3.965,2.713c0.696,1.113,0.835,2.156,0.417,3.131
		c-1.113,1.947-2.713,2.226-4.8,0.834c-0.417-0.557-0.766-1.461-1.043-2.713c-0.278-1.252-0.905-2.227-1.878-2.922
		C263.354,63.234,263.145,62.747,264.119,62.469z M262.449,74.156c0.278,3.896,0.904,7.583,1.878,11.061
		c1.53,5.427,3.756,9.392,6.678,11.896c1.948,1.669,3.27,2.018,3.965,1.043c0.557-0.695,1.322-2.018,2.296-3.965l1.461-2.922
		c0.557-0.695,0.834-0.487,0.834,0.626c-0.695,3.479-1.043,5.774-1.043,6.887c-0.139,1.113-0.139,1.879,0,2.296
		c0.139,0.278,0.696,1.252,1.67,2.922c0.695,1.113,0.765,2.087,0.208,2.922c-0.696,1.113-2.018,1.392-3.965,0.835
		c-1.669-0.417-3.27-1.113-4.8-2.087c-6.122-3.757-10.227-9.183-12.313-16.278c-1.252-4.313-2.157-9.392-2.713-15.235h-25.044
		l-0.417-1.461h25.461l-0.208-5.426l-0.417-7.931l6.678,0.626c2.087,0.695,2.366,1.461,0.835,2.295l-1.252,0.627
		c-0.139,1.809-0.07,5.078,0.208,9.809h9.183l3.339-4.801l5.218,4.383c0.974,0.975,0.834,1.601-0.417,1.879H262.449 M247.423,97.321
		c4.313-0.695,8-1.321,11.061-1.878c1.252-0.278,1.878-0.209,1.878,0.209c0,0.557-1.6,1.461-4.8,2.713l-4.591,1.878
		c-4.174,1.67-6.678,2.644-7.513,2.922c-1.113,0.278-2.852,0.835-5.217,1.67l-0.626,1.044c-1.113,1.947-2.226,2.017-3.339,0.208
		l-3.757-6.052c4.452-0.557,8-1.044,10.644-1.461V84.8h-8.348l-0.417-1.461h15.861l3.548-4.8l5.009,4.383
		c0.974,0.974,0.834,1.6-0.417,1.878h-8.974V97.321"/>
	<path d="M313.942,75.199l4.8,3.966c0.974,0.835,0.835,1.392-0.417,1.669h-22.957l-0.417-1.461h15.444L313.942,75.199z
		 M285.977,100.661c3.339,0.139,6.609,0.209,9.809,0.209c1.392-2.922,2.644-6.679,3.757-11.271h-14.4l-0.626-1.461h36.94
		l3.548-4.591l5.635,4.174c1.113,0.974,0.974,1.6-0.417,1.878h-23.792c1.252,0.975,1.392,1.739,0.417,2.296l-1.669,0.626
		c-2.365,3.2-4.661,5.982-6.887,8.349c2.922,0,6.748-0.07,11.479-0.209c5.426-0.14,8.278-0.209,8.557-0.209
		c-1.252-1.948-2.713-3.617-4.383-5.009c-2.226-1.392-2.504-2.156-0.834-2.296c3.339,1.113,5.982,2.227,7.931,3.34
		c3.061,1.809,5.078,4.034,6.052,6.678c0.417,1.113,0.417,2.227,0,3.34c-0.696,1.809-1.67,2.573-2.922,2.295
		c-1.391,0-2.365-0.765-2.922-2.295c-0.835-2.365-1.461-3.826-1.878-4.383c-9.6,1.809-18.296,3.13-26.087,3.965l-0.835,1.253
		c-0.974,1.53-1.948,1.46-2.921-0.209L285.977,100.661 M310.186,63.095c2.783,4.452,7.096,8.278,12.939,11.479
		c1.391,0.835,3.061,1.601,5.009,2.296c1.809,0.557,3.479,1.183,5.009,1.878c-1.113,0.696-2.087,1.392-2.922,2.087
		c-0.696,0.557-1.53,1.739-2.504,3.549c-1.948-1.113-3.826-2.366-5.635-3.757c-3.2-2.505-6.122-5.427-8.766-8.766
		c-1.669-2.226-3.2-4.939-4.591-8.14c-5.705,8.904-12.87,15.583-21.496,20.035c-0.835,0.557-1.878,0.975-3.13,1.253
		c-0.696-0.278-0.487-0.835,0.626-1.67c1.391-0.974,2.783-2.087,4.174-3.339c2.644-2.505,5.009-5.148,7.096-7.932
		c2.783-3.895,5.287-8.417,7.513-13.565l7.096,2.086c1.391,0.696,1.6,1.322,0.626,1.879L310.186,63.095"/>
	<path d="M371.557,103.18h5.844l3.757-5.009l5.009,4.591c0.974,0.974,0.835,1.601-0.418,1.879h-34.227l-0.417-1.461h14.608V79.388
		h-10.852l-0.418-1.461h11.27V59.353l6.888,0.835c1.113,0.417,1.183,1.182,0.208,2.295l-1.252,0.835v14.609h4.383l3.339-4.383
		l4.592,4.174c0.835,0.835,0.695,1.392-0.417,1.67h-11.896V103.18z M343.591,87.109c-0.417,0.417-1.183,1.043-2.295,1.878
		c-1.67,1.253-3.131,2.227-4.383,2.922c-1.252,0.418-1.322,0-0.209-1.252c1.809-1.67,3.479-3.479,5.009-5.426
		c3.757-4.731,6.608-9.322,8.557-13.774h-13.148l-0.417-1.461h6.887v-11.27l6.679,1.043c1.67,0.695,1.809,1.53,0.417,2.504
		l-1.669,0.627v7.096h1.669l2.087-3.131l4.383,4.174c0.835,0.835,0.696,1.461-0.417,1.879l-1.252,0.417
		c-0.557,0.974-1.183,1.948-1.879,2.922c-0.695,0.974-2.226,2.783-4.591,5.427v1.669c2.365,0.418,4.104,0.904,5.217,1.461
		c1.948,1.113,2.922,2.574,2.922,4.383c0,1.53-0.557,2.435-1.669,2.713c-1.67,0.418-2.714-0.069-3.131-1.461
		c-0.835-2.922-1.948-4.938-3.339-6.052v21.078c0.139,0.835-0.349,1.461-1.461,1.879c-1.253,0.557-2.296,0.765-3.131,0.626
		c-0.417-0.14-0.695-0.487-0.835-1.044V87.109"/>
	<path d="M433.027,73.112c1.391,0.557,3.13,1.601,5.217,3.131c1.253,0.974,1.531,2.018,0.835,3.13
		c-0.417,0.557-1.183,0.696-2.295,0.418c-0.975-0.278-2.157-0.487-3.549-0.626c-1.391-0.14-4.034-0.278-7.931-0.418
		c0,1.392-0.139,2.992-0.417,4.801c-0.557,4.73-1.6,8.348-3.131,10.853c-1.391,2.226-3.617,4.521-6.678,6.887
		c-2.505,1.809-5.496,3.409-8.975,4.8c-1.113,0.418-1.252,0.209-0.417-0.626l2.504-1.67c2.087-1.391,4.035-3.199,5.844-5.426
		c1.392-1.67,2.574-3.688,3.548-6.053c1.392-3.199,2.087-7.722,2.087-13.565c-4.312,0-7.86,0.278-10.644,0.835
		c0.14,1.67,0.209,3.826,0.209,6.47c0,2.365-0.069,3.826-0.209,4.383c-1.392,1.809-3.061,1.67-5.009-0.417
		c-0.557-0.696-0.765-1.392-0.626-2.087c0.278-1.531,0.417-2.574,0.417-3.131v-4.383c-0.834,0.278-1.738,0.557-2.713,0.835
		c-0.557,0.139-1.113,0.278-1.669,0.417c-0.557,0.14-1.253,0.418-2.088,0.835c-0.417,0.278-0.974,0.209-1.669-0.209
		c-0.418-0.278-0.904-0.695-1.461-1.252c-1.113-0.974-1.809-1.739-2.087-2.296c-0.696-2.226-0.487-3.826,0.626-4.8
		c0.695,0.974,1.252,1.739,1.669,2.296c0.696,0.695,1.67,0.974,2.922,0.835c2.644-0.278,4.801-0.487,6.47-0.626
		c-0.139-5.009-0.348-7.861-0.626-8.558c-0.139-0.417-1.183-1.113-3.13-2.086c0.139-0.279,0.417-0.557,0.835-0.836
		c0.417-0.277,0.904-0.557,1.46-0.834c1.253-0.278,3.549,0.557,6.888,2.504c0.835,0.418,1.043,1.044,0.626,1.879l-0.835,1.67
		c0,2.921,0,4.869,0,5.843l10.644-0.835c-0.139-6.678-0.278-10.295-0.417-10.852c-0.14-0.557-0.557-1.044-1.252-1.461
		c-0.418-0.14-1.113-0.418-2.087-0.836c0.139-0.417,0.417-0.765,0.834-1.043c0.835-0.557,1.461-0.835,1.879-0.835
		c0.835,0,2.226,0.487,4.174,1.461c2.227,1.113,3.479,2.018,3.757,2.714c0.278,0.557-0.14,1.252-1.253,2.086v8.14
		c2.227,0,4.244-0.069,6.053-0.208L433.027,73.112z"/>
	<path d="M456.874,79.555c-2.087,0.278-3.687-1.253-4.8-4.592c-1.252-3.061-2.991-5.356-5.218-6.887
		c-0.974-0.695-1.878-1.252-2.713-1.67c-0.417-0.278-0.348-0.486,0.209-0.626c0.695-0.14,2.644,0.14,5.844,0.835
		c5.565,1.252,8.695,3.756,9.392,7.513C460.144,77.468,459.24,79.276,456.874,79.555z M445.813,94.789
		c0.557,0.975,1.043,1.81,1.461,2.505c0.278,0.417,1.043,0.417,2.296,0c2.782-0.835,6.052-2.227,9.809-4.174
		c3.339-1.67,6.47-3.479,9.392-5.427c5.844-3.756,11.061-7.86,15.652-12.312c0.14-0.14,0.418-0.418,0.835-0.836
		c1.67-1.112,2.018-0.834,1.044,0.836c-3.618,5.286-8.279,10.504-13.983,15.652c-4.87,4.452-10.991,8.626-18.365,12.521
		c-0.696,1.392-1.253,2.157-1.67,2.296c-0.974,0.278-2.713-0.904-5.218-3.548c-1.113-1.113-1.809-1.948-2.087-2.505
		C444.143,97.572,444.421,95.902,445.813,94.789"/>
	<path d="M523.784,68.925c-3.2,0-5.635,0.069-7.305,0.208c-4.174,0.279-9.183,0.975-15.026,2.088
		c-1.67,0.277-3.062,0.765-4.174,1.461c-1.113,0.695-2.365,0.417-3.757-0.836c-0.557-0.416-1.392-1.182-2.505-2.295
		c-0.974-0.975-1.53-1.947-1.669-2.922c-0.14-1.113,0.139-1.809,0.834-2.087c0.418,0.417,1.184,0.974,2.296,1.669
		c0.975,0.557,1.879,0.836,2.714,0.836c2.504-0.14,7.652-0.557,15.443-1.253l15.443-1.044l2.505-2.295
		c1.53,0.974,3.2,2.435,5.009,4.383c1.67,1.809,2.365,3.061,2.087,3.756c-0.139,0.418-0.765,0.696-1.878,0.836
		c-0.696,0.139-1.601,0.208-2.713,0.208c-5.287,2.782-10.366,5.147-15.235,7.096c-1.392,5.427-2.644,9.253-3.757,11.479
		c-1.948,3.896-4.521,7.235-7.722,10.018c-1.253,1.113-3.27,2.435-6.053,3.966c-1.669,0.834-2.018,0.695-1.043-0.418
		c1.809-1.53,3.2-2.991,4.174-4.383c2.365-3.2,4.104-6.539,5.218-10.018c0.417-1.53,0.904-3.617,1.461-6.261
		c0.695-3.757,0.834-5.844,0.417-6.261c-0.417-0.418-1.322-0.975-2.713-1.67c0.278-0.557,0.695-0.904,1.252-1.043
		c0.974-0.279,1.878-0.348,2.713-0.209c1.113,0.278,3.2,1.53,6.261,3.757C518.844,75.047,521.418,72.125,523.784,68.925z"/>
	<path d="M552.821,81.864c-4.035,2.644-7.583,4.661-10.644,6.052c-2.783,1.253-5.844,2.365-9.184,3.34
		c-2.087,0.557-1.739,0,1.044-1.67c1.113-0.557,3.131-1.809,6.053-3.757c6.539-4.312,12.869-10.018,18.991-17.113
		c0.557-0.696,1.252-1.53,2.087-2.505c0.695-0.834,1.044-1.461,1.044-1.878c0-0.695-0.904-1.461-2.714-2.296
		c0.418-0.557,1.113-0.904,2.088-1.043c1.252-0.139,2.504,0.278,3.756,1.252l1.879,1.461c0.834,0.695,1.669,1.6,2.504,2.713
		c1.252,1.252,0.835,2.296-1.252,3.131c-0.974,0.139-1.809,0.557-2.505,1.252c-2.644,2.365-5.286,4.661-7.931,6.888l1.253,0.626
		c0.974,0.835,0.904,1.669-0.209,2.504l-0.626,0.209c0,2.504,0.069,6.957,0.209,13.356v3.966c0.139,1.391,0.208,2.435,0.208,3.13
		c0,1.113-0.139,2.087-0.417,2.922c-0.418,1.392-1.461,2.018-3.131,1.879c-1.252-0.14-2.226-1.113-2.922-2.922
		c-0.278-0.696-0.348-1.601-0.208-2.713c0.139-0.557,0.278-1.322,0.417-2.296c0.278-1.53,0.418-4.661,0.418-9.392
		C553.03,87.43,552.959,85.064,552.821,81.864z"/>
	<path d="M617.532,84.8v4.383h-11.479V84.8H617.532z M617.532,96.904v2.505c0,0.974-0.14,1.6-0.418,1.878
		c-0.417,0.278-1.183,0.348-2.295,0.209c-1.67-0.14-3.131-0.209-4.383-0.209c-0.557,0.417-0.557,0.695,0,0.835l3.756,1.461
		c0.696,0.278,1.044,0.695,1.044,1.252c0,1.113,0.069,1.809,0.209,2.087c0.278,0.418,0.765,0.557,1.461,0.418
		c1.53-0.278,2.922-0.905,4.174-1.879c0.974-0.695,1.53-1.461,1.669-2.296c0.14-0.417,0.209-1.391,0.209-2.922V86.887l0.418-0.209
		c1.113-0.695,1.252-1.461,0.417-2.295l-5.218-3.966l-1.878,2.922H606.47l-5.844-2.505v25.671c0,0.835,0.278,1.252,0.835,1.252
		c0.418,0,1.392-0.14,2.922-0.417c1.113-0.278,1.67-0.766,1.67-1.461v-8.975H617.532 M598.958,68.104
		c0.974-0.695,1.113-1.252,0.417-1.67l-4.8-2.922c-0.557,3.758-1.67,7.932-3.34,12.522c-0.556,1.948-0.069,2.156,1.461,0.626
		c2.227-2.782,4.175-5.564,5.844-8.348L598.958,68.104 M578.922,67.895c0.417,1.252,0.626,3.201,0.626,5.844
		c0,1.531,0.139,2.574,0.417,3.131c1.113,0.974,2.365,0.766,3.757-0.626c0.695-0.974,0.974-2.018,0.835-3.131
		c-0.278-2.365-1.252-4.243-2.922-5.635l-2.296-1.878C578.087,65.738,577.948,66.504,578.922,67.895 M585.809,106.505
		c0,0.695,0.418,1.043,1.252,1.043c0.975,0,1.879-0.139,2.713-0.417c0.696-0.278,1.044-0.766,1.044-1.461V87.304
		c0.974,1.253,1.739,2.992,2.296,5.218c0.417,2.087,1.461,2.853,3.131,2.296c2.087-1.113,2.435-2.922,1.043-5.426
		c-1.113-1.67-3.27-2.783-6.47-3.34v-4.591h7.514c1.669,0,1.878-0.627,0.626-1.879h27.34c0.974-0.278,1.112-0.835,0.417-1.669
		l-4.174-4.175l-3.339,4.383h-5.427v-4.592h10.435c0.975-0.277,1.113-0.834,0.418-1.669l-4.174-3.548l-2.922,3.756h-3.757v-4.591
		h11.688c0.974-0.278,1.112-0.835,0.417-1.669l-3.965-3.966l-3.548,4.174h-4.592v-3.13l1.044-0.418
		c1.669-1.252,1.53-2.087-0.418-2.504l-6.47-0.626v6.678h-8.14l0.627,1.461h7.513v4.591H600l0.626,1.461h7.305v4.592h-10.018
		l-2.504-2.296L592.488,80h-1.67V62.887l0.835-0.627c0.835-1.113,0.766-1.878-0.209-2.295l-5.635-0.626V80h-8.557l0.626,1.461h7.305
		c-1.252,5.009-2.574,8.974-3.966,11.896c-1.112,2.227-2.365,4.383-3.756,6.47c-0.557,1.252-0.07,1.392,1.461,0.417
		c0.557-0.417,1.043-0.834,1.461-1.252c1.391-1.392,3.199-3.548,5.426-6.47V106.505 M617.532,90.644v4.8h-11.479v-4.8H617.532"/>
	<path d="M657.199,63.734c1.113-0.557,1.252-1.112,0.417-1.669l-5.009-3.339c-1.113,4.731-1.878,7.653-2.296,8.766
		c-0.557-0.418-1.391-0.836-2.504-1.253c-1.809-0.417-2.156-0.069-1.044,1.044c0.835,0.834,1.392,2.156,1.67,3.965
		c0.278,1.67,0.904,2.574,1.878,2.713c0.696,0.418,1.392,0.07,2.088-1.043c0.974-1.113,0.626-2.644-1.044-4.592l4.8-4.174
		L657.199,63.734z M674.103,75.422c0.835,0.835,1.392,1.739,1.67,2.713c-1.392,0.14-2.853,0.278-4.383,0.418
		C672.364,77.579,673.268,76.535,674.103,75.422 M671.39,88.987c-0.835,1.531-1.878,3.2-3.131,5.009
		c-0.835-1.809-1.461-3.478-1.878-5.009H671.39 M661.582,88.987c0.835,3.757,1.947,6.957,3.339,9.601
		c-1.809,2.365-3.617,4.174-5.426,5.426c-1.67,1.253-3.34,2.296-5.009,3.131c-1.81,0.974-2.157,1.461-1.044,1.461l2.087-0.626
		c4.87-1.392,8.835-3.339,11.896-5.844c1.81,1.948,3.409,3.27,4.801,3.966c3.339,1.809,5.913,2.226,7.722,1.252
		c1.252-0.696,1.461-1.53,0.626-2.505l-0.835-1.043c-0.556-0.696-0.765-1.392-0.626-2.087l1.044-6.679
		c-0.14-0.417-0.418-0.487-0.835-0.209c-1.113,2.087-2.296,4.104-3.548,6.053c-0.557,0.417-1.322,0.348-2.296-0.209
		c-0.695-0.417-1.53-1.183-2.504-2.296c0.974-0.835,2.018-1.947,3.13-3.339l1.253-0.417c1.391-0.557,1.53-1.322,0.417-2.296
		l-3.966-3.34h7.931c0.835-0.278,0.905-0.835,0.209-1.669l-3.548-3.757l-2.713,3.965h-7.514c-0.417-2.504-0.695-5.009-0.834-7.513
		l1.878,3.339c0.557,0.974,1.183,0.974,1.878,0l0.418-0.626l0.208-0.209c0.278,0.557,0.487,1.392,0.626,2.505
		c0.14,1.252,0.766,1.878,1.879,1.878c1.392,0,2.087-0.765,2.087-2.296c0-1.112-0.974-2.087-2.922-2.921
		c1.67-0.696,3.27-1.392,4.8-2.088v0.418c0.14,0.835,0.278,1.461,0.418,1.878c0.278,0.557,0.626,0.904,1.043,1.044
		c1.531,0.557,2.505,0,2.922-1.67c0.418-1.67-0.348-3.27-2.296-4.8c-0.834-0.696-2.017-1.252-3.548-1.67l1.67-2.087l1.252-0.626
		c0.975-0.557,1.113-1.183,0.418-1.878l-4.174-3.131c-1.67,4.452-3.34,8.348-5.01,11.688c-1.252,0.139-2.504,0.208-3.756,0.208
		c-0.14-6.399-0.209-10.713-0.209-12.938c0.974,1.112,1.6,2.086,1.878,2.922c0.14,0.556,0.418,1.529,0.835,2.921
		c0.835,1.53,1.948,1.67,3.34,0.417c1.252-1.391,0.974-3.061-0.835-5.008c1.252-0.835,2.713-1.948,4.383-3.34l0.626-0.209
		c1.252-0.557,1.391-1.182,0.417-1.878l-4.591-2.922c-0.696,2.644-1.461,5.147-2.296,7.514c-1.392-0.557-2.644-0.905-3.757-1.044
		v-2.713l1.044-0.626c0.974-0.974,0.904-1.67-0.209-2.087l-6.053-0.835c0.14,5.009,0.278,8.904,0.418,11.687l-4.383-3.338
		c-0.974,2.365-2.018,4.73-3.131,7.096c-0.974,2.086-1.947,4.104-2.922,6.052c-1.669,0.139-3.339,0.209-5.009,0.209l2.087,3.965
		c0.696,1.392,1.461,1.53,2.296,0.418l0.626-0.835c2.087-0.696,4.035-1.461,5.844-2.296l0.209,1.044
		c0.417,1.809,1.252,2.504,2.504,2.087c1.948-1.113,2.296-2.853,1.044-5.218c-0.835-1.392-2.227-2.574-4.174-3.548
		c1.113-1.252,2.226-2.505,3.339-3.757c0.695-0.139,1.252-0.348,1.67-0.626c0.278,5.287,0.695,10.435,1.252,15.443h-13.148
		c-1.112-1.53-3.061-2.644-5.843-3.339v-9.809h5.635c0.834-0.278,0.904-0.835,0.208-1.67l-3.13-3.965l-2.296,4.174h-0.417v-9.809
		l1.46-0.836c1.253-1.252,1.113-2.086-0.417-2.504l-6.47-0.626v13.774h-7.096l1.252,1.461h5.635
		c-0.557,5.147-1.391,9.53-2.504,13.147c-1.113,3.479-2.365,6.609-3.757,9.392c-0.695,1.948-0.487,2.436,0.626,1.461
		c0.696-0.557,2.644-2.782,5.844-6.678v15.026c0,0.974,0.487,1.391,1.461,1.252c1.392-0.14,2.505-0.487,3.339-1.044
		c0.418-0.278,0.627-0.834,0.627-1.669V85.648c0.834,1.252,1.321,2.087,1.46,2.504c0.278,1.948,0.487,3.131,0.626,3.549
		c0.835,1.53,2.018,1.738,3.549,0.626c0.834-0.557,1.043-1.67,0.626-3.34h1.669c0.14,3.2-0.139,6.191-0.834,8.975
		c-0.696,3.339-2.157,6.47-4.383,9.392c-0.835,1.53-0.278,1.6,1.669,0.208c1.253-0.974,2.018-1.6,2.296-1.878
		c2.365-1.948,4.035-4.452,5.009-7.513c0.278-1.113,0.557-2.227,0.835-3.34c0.695,0.696,1.322,2.435,1.878,5.218
		c0.696,1.67,1.81,2.018,3.34,1.043c0.695-0.556,1.112-1.183,1.252-1.878c0.278-1.67-0.417-3.131-2.087-4.383
		c-1.113-0.695-2.435-1.183-3.966-1.461c0.14-1.809,0.278-3.27,0.418-4.383H661.582 M654.486,77.092
		c0.278,0.417,0.556,0.904,0.834,1.461c0.14,0.417,0.209,0.904,0.209,1.461c-1.669,0.139-2.991,0.278-3.965,0.417L654.486,77.092"/>
</g>
<path fill="#6283B5" d="M75.329,24.711c-32.457,0-58.77,26.312-58.77,58.769c0,32.457,26.312,58.771,58.77,58.771
	c32.457,0,58.77-26.313,58.77-58.771C134.098,51.023,107.785,24.711,75.329,24.711z M75.329,136.907
	c-13.554,0-25.929-5.048-35.349-13.365l-0.426-0.66H93.36l6.484-39.402h10.211l2.004-13.356h-10.018h-1.335H88.018L83.292,98.84
	H72.601l7.839-38.734h16.927l2.671-12.689h-17.03h-0.668H57.965L47.558,98.84h-23.41c-1.459-4.865-2.246-10.021-2.246-15.36
	c0-29.506,23.92-53.427,53.427-53.427s53.427,23.921,53.427,53.427C128.755,112.986,104.835,136.907,75.329,136.907z"/>
<path fill="#6283B5" d="M143.653,113.901c4.146-9.297,6.469-19.585,6.469-30.422c0-38.829-29.589-70.743-67.447-74.435V0H67.982
	v9.016l0.297,0.007C30.28,12.576,0.536,44.549,0.536,83.479c0,11.531,2.614,22.45,7.274,32.205L0,120.193l7.346,12.724l8.069-4.658
	c13.641,18.224,35.399,30.019,59.913,30.019c25.215,0,47.499-12.492,61.048-31.611l7.936,4.582l7.347-12.725L143.653,113.901z
	 M75.329,147.593c-35.408,0-64.112-28.705-64.112-64.113c0-35.407,28.705-64.112,64.112-64.112s64.112,28.705,64.112,64.112
	C139.44,118.888,110.736,147.593,75.329,147.593z"/>
</svg>
